<svg xmlns="http://www.w3.org/2000/svg" fill="none" viewBox="0 0 448 63">
  <g filter="url(#a)">
    <rect width="432" height="46" x="8" y="7" fill="#EC008C" rx="2"/>
    <path fill="#fff" d="M193.374 35.5V24.348h2v9.312h4.768v1.84h-6.768Zm11.175-8.048c2.08 0 3.376 1.168 3.376 3.072V35.5h-1.76l-.16-1.024c-.464.736-1.36 1.184-2.4 1.184-1.664 0-2.848-1.072-2.848-2.576 0-.928.416-1.632 1.184-1.984.528-.24 1.2-.352 2.096-.352h1.968v-.224c0-.864-.576-1.392-1.488-1.392-.8 0-1.552.416-2.128 1.184l-1.392-1.168c.944-1.136 2.112-1.696 3.552-1.696Zm-.64 6.576c1.152 0 2.096-.816 2.096-1.84h-1.712c-.656 0-1.04.08-1.296.272-.208.144-.32.368-.32.656 0 .56.464.912 1.232.912Zm10.245-6.576c1.936 0 3.328 1.52 3.328 4.096 0 2.368-1.184 4.112-3.328 4.112-.848 0-1.728-.272-2.272-.944v.784h-1.92V24.348h1.92v4.064c.496-.592 1.376-.96 2.272-.96Zm-.464 6.432c1.28 0 1.872-.864 1.872-2.32 0-1.472-.608-2.368-1.888-2.368-1.376 0-1.968 1.056-1.968 2.368 0 1.312.592 2.32 1.984 2.32Zm12.148-2.432c0 .24-.016.48-.048.736h-5.408c.08 1.04.72 1.728 1.968 1.728.704 0 1.344-.224 1.888-.848l1.328 1.168c-.864.96-1.904 1.424-3.232 1.424-2.72 0-3.872-1.952-3.872-4.064 0-2.064 1.12-4.144 3.744-4.144 2.448 0 3.632 1.808 3.632 4Zm-5.472-.784h3.632c-.032-1.008-.8-1.616-1.808-1.616-1.168 0-1.712.832-1.824 1.616Zm8.824 4.992c-1.072 0-1.856-.64-1.856-2.048v-9.264h1.92v9.136c0 .352.208.496.56.496.176 0 .384-.032.608-.096v1.536c-.432.16-.864.24-1.232.24Z"/>
    <g clip-path="url(#b)">
      <path fill="#fff" d="M254.629 32.702a13.864 13.864 0 0 1-1.878 1.996c-.098.077-.159.072-.085 0 2.375-2.638 4.951-8.46 1.611-14.207a9.247 9.247 0 0 0-2.394 2.857c-1.069-1.67-2.627-3.077-4.57-4.325 0 0-4.901 5.547-2.733 13.582-6.25.88-3.98 5.778-2.99 6.484.045.033.087.017.022-.084-.351-.547-1.334-2.461.692-4.296 1.088-.985 3.362-1.242 3.362-1.242-.518-3.86-.481-7.345 2.115-11.21.331.22 4.135 1.92 4.27 7.627.317 3.58-1.513 6.444-3.289 7.56-3.146 1.715-6.676 2.557-9.747 3.298-.261.061-.158.09.016.083 7.292-.312 13.775-3.644 16.269-6.813.478-.611.694-1.286.369-1.657-.324-.372-.907.22-1.038.382m-1.175-4.706a10.597 10.597 0 0 0-.781-3.189c.703-1.483 1.423-2.033 1.423-2.033s1.482 3.855.181 7.816c-.803 2.45-1.767 3.932-2.283 4.567-.115.14-.217.185-.154.099 1.216-1.664 1.884-4.312 1.614-7.253"/>
    </g>
  </g>
  <defs>
    <clipPath id="b">
      <path fill="#fff" d="M238.857 19h17.286v22h-17.286z"/>
    </clipPath>
    <filter id="a" width="448" height="63" x="0" y="0" color-interpolation-filters="sRGB" filterUnits="userSpaceOnUse">
      <feFlood flood-opacity="0" result="BackgroundImageFix"/>
      <feColorMatrix in="SourceAlpha" result="hardAlpha" values="0 0 0 0 0 0 0 0 0 0 0 0 0 0 0 0 0 0 127 0"/>
      <feMorphology in="SourceAlpha" radius="1" result="effect1_dropShadow_2363_3232"/>
      <feOffset dy="1"/>
      <feGaussianBlur stdDeviation=".5"/>
      <feColorMatrix values="0 0 0 0 0.133333 0 0 0 0 0.133333 0 0 0 0 0.168627 0 0 0 0.08 0"/>
      <feBlend in2="BackgroundImageFix" result="effect1_dropShadow_2363_3232"/>
      <feColorMatrix in="SourceAlpha" result="hardAlpha" values="0 0 0 0 0 0 0 0 0 0 0 0 0 0 0 0 0 0 127 0"/>
      <feMorphology in="SourceAlpha" radius="2" result="effect2_dropShadow_2363_3232"/>
      <feOffset dy="4"/>
      <feGaussianBlur stdDeviation="4"/>
      <feColorMatrix values="0 0 0 0 0.133333 0 0 0 0 0.133333 0 0 0 0 0.168627 0 0 0 0.08 0"/>
      <feBlend in2="effect1_dropShadow_2363_3232" result="effect2_dropShadow_2363_3232"/>
      <feColorMatrix in="SourceAlpha" result="hardAlpha" values="0 0 0 0 0 0 0 0 0 0 0 0 0 0 0 0 0 0 127 0"/>
      <feMorphology in="SourceAlpha" radius="2" result="effect3_dropShadow_2363_3232"/>
      <feOffset dy="1"/>
      <feGaussianBlur stdDeviation="5"/>
      <feColorMatrix values="0 0 0 0 0.133333 0 0 0 0 0.133333 0 0 0 0 0.168627 0 0 0 0.1 0"/>
      <feBlend in2="effect2_dropShadow_2363_3232" result="effect3_dropShadow_2363_3232"/>
      <feBlend in="SourceGraphic" in2="effect3_dropShadow_2363_3232" result="shape"/>
    </filter>
  </defs>
</svg>
