<svg xmlns="http://www.w3.org/2000/svg" width="184" height="33" viewBox="0 0 184 33">
    <g fill="none" fill-rule="evenodd">
        <g fill-rule="nonzero">
            <g>
                <g>
                    <path fill="#FFF" d="M95.3 26.579v-1.24h.7v7.127h-.7v-1.188c-.65.878-1.65 1.395-2.8 1.395-1.95 0-3.5-1.55-3.5-3.719 0-2.169 1.6-3.718 3.5-3.718 1.1-.052 2.25.413 2.8 1.343zm-5.65 2.324c0 1.807 1.25 3.047 2.8 3.047 1.95 0 2.9-1.55 2.9-3.047 0-1.498-.95-3.047-2.9-3.047-1.55 0-2.8 1.24-2.8 3.047zM92.4 24.1l-1.75-2.427h.9l1.5 2.427h-.65z" transform="translate(-90 -171) translate(90 171) translate(0 .327)"/>
                    <path fill="#FFF" d="M0 28.673H79V29.673H0zM105 28.673H184V29.673H105z" opacity=".3" transform="translate(-90 -171) translate(90 171) translate(0 .327)"/>
                    <g>
                        <path fill="#FFF" d="M10.287 1.582l-1.25 1.09c-.796-.763-1.933-1.09-2.956-1.09-2.898 0-4.206 2.073-4.206 4.145 0 1.964 1.25 3.928 4.206 3.928 1.08 0 2.217-.382 3.012-1.2l1.25 1.254c-1.08 1.036-2.67 1.636-4.319 1.636C1.875 11.345 0 8.618 0 5.727 0 2.837 1.932 0 6.024 0c1.592 0 3.126.49 4.263 1.582zM20.914 8.89l-.966 2.237h-1.932L23.017.164h1.819l4.887 10.963h-2.046l-.966-2.236h-5.797zm2.899-6.654l-2.16 5.019h4.376l-2.216-5.019zM43.534.164c2.67 0 4.035 1.745 4.035 3.545 0 1.582-.853 3.11-3.07 3.436l3.581 3.982h-2.444L42.34 7.31h-2.273v3.818h-1.819V.164h5.286zM40.01 5.727h3.467c1.534 0 2.16-.927 2.16-1.963 0-.982-.683-1.964-2.16-1.964H40.01v3.927zM61.038 1.8L61.038 11.127 59.162 11.127 59.162 1.8 55.411 1.8 55.411.164 64.732.164 64.732 1.8zM75.246 1.8L75.246 4.8 80.872 4.8 80.872 6.436 75.246 6.436 75.246 9.491 81.327 9.491 81.327 11.127 73.37 11.127 73.37.164 81.213.164 81.213 1.8z" transform="translate(-90 -171) translate(90 171) translate(0 .327) translate(1.114)"/>
                        <path fill="#0BA100" d="M105.538 11.127L100.764.164 103.946.164 106.958 7.909 110.027.164 113.21.164 108.436 11.127zM124.406 2.673L124.406 4.418 129.464 4.418 129.464 6.927 124.406 6.927 124.406 8.618 129.862 8.618 129.862 11.127 121.564 11.127 121.564.164 129.805.164 129.805 2.673zM144.41.164c2.786.054 4.32 1.745 4.32 3.763 0 1.364-.455 2.837-2.444 3.491l3.183 3.71h-3.694L143.16 7.69h-1.478v3.436h-2.842V.164h5.57zm-2.84 5.127h2.898c1.023 0 1.477-.764 1.477-1.31 0-.654-.454-1.308-1.534-1.308h-2.842V5.29zM162.654 2.673L162.654 11.127 159.812 11.127 159.812 2.673 156.459 2.673 156.459.164 166.007.164 166.007 2.673zM177.203 2.673L177.203 4.418 182.261 4.418 182.261 6.927 177.203 6.927 177.203 8.618 182.659 8.618 182.659 11.127 174.361 11.127 174.361.164 182.602.164 182.602 2.673z" transform="translate(-90 -171) translate(90 171) translate(0 .327) translate(1.114)"/>
                    </g>
                </g>
            </g>
        </g>
    </g>
</svg>
