<?xml version="1.0" encoding="utf-8"?>
<!-- Generator: Adobe Illustrator 25.4.1, SVG Export Plug-In . SVG Version: 6.00 Build 0)  -->
<svg version="1.1" id="Calque_1" xmlns="http://www.w3.org/2000/svg" xmlns:xlink="http://www.w3.org/1999/xlink" x="0px" y="0px"
	 viewBox="0 0 180 32.1" style="enable-background:new 0 0 180 32.1;" xml:space="preserve">
<style type="text/css">
	.st0{clip-path:url(#SVGID_00000144313287790432447070000012927395934703263412_);}
	.st1{opacity:0.3;fill:#FFFFFF;enable-background:new    ;}
	.st2{fill:#FFFFFF;}
</style>
<g>
	<defs>
		<rect id="SVGID_1_" width="180" height="28"/>
	</defs>
	<clipPath id="SVGID_00000176023485371113961970000004467201334406324657_">
		<use xlink:href="#SVGID_1_"  style="overflow:visible;"/>
	</clipPath>
	<g style="clip-path:url(#SVGID_00000176023485371113961970000004467201334406324657_);">
		<path class="st1" d="M180,26.9H0V28h180V26.9z"/>
		<path class="st2" d="M0,0.1h4.8C5.5,0,6.3,0.2,7,0.6C7.6,0.9,8,1.4,8.4,2c0.3,0.6,0.5,1.2,0.4,1.8c0,0.6-0.2,1.3-0.4,1.8
			C8,6.2,7.6,6.7,7,7.1C6.3,7.4,5.5,7.6,4.8,7.6H2.3v3H0V0.1z M4.8,5.6c0.2,0,0.5,0,0.7-0.1c0.2-0.1,0.4-0.2,0.6-0.4
			c0.3-0.3,0.5-0.7,0.5-1.2S6.4,3,6.1,2.7C5.9,2.5,5.7,2.4,5.5,2.3C5.3,2.2,5,2.2,4.8,2.2H2.3v3.4H4.8z"/>
		<path class="st2" d="M19.9,0.1h2.3v10.6h-2.3V0.1z"/>
		<path class="st2" d="M33.9,0.1H36l4.7,6.4V0.1H43v10.6h-1.9l-4.9-6.7v6.7h-2.3V0.1z"/>
		<path class="st2" d="M61.3,10.6l-3.2-4.4l-1,1v3.3h-2.3V0.1h2.3v4.3l3.8-4.3h2.9l-4.2,4.5l4.6,6.1H61.3z"/>
		<path class="st2" d="M88.8,0.1h4.4c0.9,0,1.8,0.2,2.5,0.8c0.3,0.3,0.6,0.6,0.8,0.9c0.2,0.4,0.3,0.8,0.2,1.2c0,0.5-0.2,1-0.4,1.3
			c-0.3,0.4-0.7,0.7-1.2,0.9c0.6,0.1,1.1,0.5,1.4,1c0.3,0.5,0.5,1,0.5,1.6c0,0.4,0,0.9-0.2,1.2s-0.5,0.7-0.8,1
			c-0.8,0.5-1.8,0.7-2.7,0.7h-4.5V0.1z M93.1,4.6c1.5,0,2.3-0.6,2.3-1.6c0-0.2,0-0.5-0.1-0.7c-0.1-0.2-0.3-0.4-0.5-0.6
			c-0.5-0.3-1-0.4-1.6-0.4h-2.9v3.3H93.1z M93.2,9.3c1.6,0,2.4-0.5,2.4-1.7c0-0.3,0-0.6-0.2-0.8c-0.1-0.2-0.3-0.5-0.6-0.6
			c-0.6-0.4-1.2-0.5-1.9-0.5h-2.9v3.6H93.2z"/>
		<path class="st2" d="M108.6,0.1h4.9c0.7,0,1.4,0.1,2,0.5c0.5,0.3,1,0.7,1.3,1.2c0.3,0.5,0.4,1.1,0.4,1.7c0,0.8-0.3,1.6-0.8,2.2
			c-0.6,0.6-1.5,1-2.4,1.1l3.6,3.9h-1.8l-3.4-3.8H110v3.8h-1.4V0.1z M113.5,5.6c0.3,0,0.6,0,0.9-0.1c0.3-0.1,0.6-0.3,0.8-0.5
			c0.2-0.2,0.4-0.5,0.5-0.7c0.1-0.3,0.2-0.6,0.1-0.8c0-0.4-0.1-0.7-0.3-1c-0.2-0.3-0.4-0.6-0.8-0.8c-0.4-0.2-0.8-0.3-1.3-0.3H110
			v4.3H113.5z"/>
		<path class="st2" d="M135.8,8.3h-5.4l-0.9,2.3H128L132.5,0h1.4l4.3,10.6h-1.5L135.8,8.3z M135.3,7l-2.2-5.4l-2.3,5.5L135.3,7
			L135.3,7z"/>
		<path class="st2" d="M149.8,0.1h1.2l6.1,8.1V0.1h1.4v10.6h-1.2l-6.2-8.3v8.3h-1.4V0.1z"/>
		<path class="st2" d="M170.6,0.1h3.9c1,0,2.1,0.2,3,0.7c0.8,0.4,1.4,1.1,1.8,1.9c0.4,0.8,0.6,1.7,0.6,2.6c0,0.9-0.2,1.9-0.6,2.7
			c-0.4,0.8-1,1.5-1.8,2c-0.9,0.5-2,0.8-3,0.8h-3.9L170.6,0.1L170.6,0.1z M174.6,9.2c0.8,0,1.6-0.1,2.3-0.5c0.6-0.4,1.1-0.9,1.4-1.5
			c0.3-0.6,0.4-1.3,0.4-2c0-0.7-0.2-1.3-0.4-1.9c-0.3-0.6-0.8-1.1-1.4-1.5c-0.7-0.4-1.5-0.6-2.3-0.5h-2.5v8H174.6z"/>
	</g>
</g>
</svg>
