<svg width="123" height="50" viewBox="0 0 123 50" fill="none" xmlns="http://www.w3.org/2000/svg">
<g clip-path="url(#clip0_283_1807)">
<path class="rose" d="M0.389648 0.847534H6.81528C8.02746 0.847534 8.99284 1.08926 9.78584 1.57454C10.5717 2.04675 11.22 2.71736 11.6658 3.5193C12.0718 4.30534 12.2799 5.17886 12.2719 6.06383C12.257 6.94605 12.0501 7.8144 11.6658 8.60837C11.2412 9.45897 10.6351 10.0042 9.78584 10.5513C8.93659 11.0984 7.90588 11.2783 6.81528 11.2783H3.54893V15.4186H0.389648V0.847534ZM6.81528 8.55747C7.14179 8.55864 7.46529 8.49499 7.7671 8.3702C8.06891 8.24542 8.34304 8.06197 8.57366 7.83046C8.99846 7.39224 9.23607 6.80548 9.23607 6.19469C9.23607 5.5839 8.99846 4.99714 8.57366 4.55892C8.33977 4.33582 8.06376 4.16173 7.76182 4.04688C7.45987 3.93203 7.13807 3.87871 6.81528 3.89007H3.54893V8.55747H6.81528Z" fill="white"/>
<path class="rose" d="M27.1229 0.847534H30.2768V15.4804H27.1229V0.847534Z" fill="white"/>
<path class="rose" d="M45.9769 0.847534H48.8259L55.13 9.65162V0.847534H58.2765V15.4804H55.6762L49.0691 6.25103V15.4804H45.9842L45.9769 0.847534Z" fill="white"/>
<path class="rose" d="M82.7125 15.4804L78.419 9.46987L77.0853 10.8657V15.4804H73.9224V0.847534H77.0762V6.79811L82.2298 0.847534H86.1712L80.5313 7.03984L86.7137 15.4804H82.7125Z" fill="white"/>
<path class="carte" d="M0.389648 22.5833H4.57239C5.54019 22.5833 6.32654 22.8256 6.93142 23.3103C7.23442 23.5621 7.47833 23.8776 7.64581 24.2344C7.81329 24.5913 7.90022 24.9807 7.90043 25.375C7.89223 25.8529 7.74739 26.3184 7.48307 26.7164C7.21949 27.1085 6.83816 27.4064 6.39428 27.567C6.94495 27.7067 7.42106 28.0528 7.72441 28.5339C8.04613 28.997 8.21551 29.5492 8.20892 30.1133C8.20892 31.0839 7.90588 31.8127 7.2399 32.238C6.47451 32.7001 5.59272 32.9322 4.69941 32.9069H0.449531V22.5833H0.389648ZM4.45081 27.0163C5.84626 27.0163 6.57212 26.471 6.57212 25.4386C6.57212 24.8316 6.39065 24.4663 5.96603 24.1664C5.53167 23.8907 5.02852 23.7433 4.51432 23.7411H1.72341V27.0126L4.45081 27.0163ZM4.63227 31.571C6.14931 31.571 6.87698 31.0257 6.87698 29.9352C6.87698 29.3282 6.69551 28.9028 6.20919 28.5993C5.68713 28.2595 5.07303 28.0894 4.45081 28.1122H1.65989V31.5746L4.63227 31.571Z" fill="white"/>
<path class="carte" d="M19.1221 22.5833H23.7984C24.4568 22.5783 25.105 22.7463 25.6784 23.0704C26.1942 23.345 26.6163 23.7678 26.8905 24.2845C27.1319 24.8298 27.3152 25.3169 27.3152 25.9203C27.3373 26.3256 27.2769 26.7313 27.1377 27.1126C26.9985 27.4938 26.7834 27.8428 26.5054 28.1382C26.2274 28.4337 25.8924 28.6694 25.5206 28.8312C25.1488 28.9929 24.7481 29.0773 24.3428 29.0791L27.7362 32.905H25.976L22.7622 29.2009H20.4032V32.905H19.0695V22.5815L19.1221 22.5833ZM23.7294 27.9268C24.4553 27.9268 25.0632 27.7451 25.4261 27.3198C25.809 26.9066 26.025 26.3658 26.0322 25.8021C26.0161 25.4657 25.9335 25.1358 25.7891 24.8316C25.6143 24.5133 25.3653 24.242 25.0632 24.041C24.6926 23.8338 24.2736 23.729 23.8492 23.7374H20.5157V27.9177L23.7294 27.9268Z" fill="white"/>
<path class="carte" d="M44.8247 30.5331H39.6729L38.7656 32.7796H37.4954L41.738 22.5179H43.0717L47.1347 32.7796H45.7393L44.8247 30.5331ZM44.4617 29.319L42.3404 24.0355L40.2173 29.379L44.4617 29.319Z" fill="white"/>
<path class="carte" d="M58.0951 22.5833H59.2474L65.0125 30.5332V22.5833H66.3463V32.8451H65.2575L59.4379 24.8316V32.8451H58.0951V22.5833Z" fill="white"/>
<path class="carte" d="M77.8039 22.5833H81.5039C82.5927 22.5833 83.6271 22.7651 84.3529 23.2522C85.0841 23.698 85.6894 24.3237 86.1113 25.0697C86.5311 25.8308 86.7404 26.6904 86.7174 27.5597C86.7322 28.4667 86.5227 29.3633 86.1077 30.1697C85.7447 30.9603 85.1386 31.5673 84.3493 32.1126C83.5617 32.5973 82.5939 32.8396 81.4459 32.8396H77.7422L77.8039 22.5779V22.5833ZM81.562 31.4419C82.4705 31.4419 83.1964 31.2602 83.7396 30.8967C84.2749 30.5042 84.7281 30.0101 85.0733 29.4426C85.3352 28.8281 85.4787 28.1695 85.4961 27.5015C85.4859 26.8542 85.3432 26.2158 85.0769 25.6258C84.8356 25.0188 84.3511 24.5935 83.7432 24.2282C83.0985 23.8572 82.3653 23.6687 81.6219 23.6829H79.1975V31.4419H81.562Z" fill="white"/>
<path class="carte" d="M1.19005 42.1078C1.49974 41.6833 1.99751 41.4381 2.52198 41.4517C3.6142 41.4517 4.44587 42.1934 4.44587 43.4407C4.44587 44.6442 3.64546 45.4402 2.54491 45.4402C2.01538 45.4588 1.50994 45.218 1.19005 44.7946V45.3566H0.389648V39.9474H1.19005V42.1078ZM1.24425 43.4407C1.2312 43.772 1.35344 44.0943 1.58277 44.3333C1.81209 44.5722 2.12867 44.7071 2.45945 44.7069C3.12228 44.7069 3.63713 44.1971 3.63713 43.4407C3.63713 42.6844 3.11394 42.1871 2.45319 42.1871C2.12539 42.1875 1.81174 42.3211 1.58391 42.5574C1.35608 42.7936 1.23353 43.1123 1.24425 43.4407Z" fill="white"/>
<path class="carte" d="M8.81678 45.2313C8.81678 46.276 8.02471 46.8902 6.94083 46.8902C6.29209 46.8974 5.66805 46.6412 5.21079 46.1799L5.67144 45.5865C6.001 45.9398 6.45846 46.1453 6.94083 46.1569C7.53488 46.1569 8.00387 45.8414 8.00387 45.2459V44.6191C7.68425 45.0057 7.2038 45.2218 6.70321 45.2041C5.80276 45.2041 5.13367 44.6254 5.13367 43.445V41.55H5.93407V43.3614C5.93407 44.0947 6.22589 44.4562 6.88038 44.4645C7.18226 44.4728 7.47412 44.3556 7.68687 44.1408C7.89962 43.926 8.01434 43.6326 8.00387 43.33V41.55H8.81053L8.81678 45.2313Z" fill="white"/>
<g clip-path="url(#clip1_283_1807)">
<path class="carte" d="M35.186 41.1096C33.7387 41.1096 32.4391 41.2939 32.4391 43.5181V48.3195H33.4994V45.6787C34.0049 45.9121 34.6324 45.9322 35.186 45.9322C36.64 45.9322 37.9351 45.748 37.9351 43.5226C37.9351 41.2972 36.6355 41.1096 35.186 41.1096ZM35.186 45.0121C33.5654 45.0121 33.4994 44.7028 33.4994 43.5181C33.4994 42.3591 33.571 42.0252 35.186 42.0252C36.801 42.0252 36.8749 42.3602 36.8749 43.5181C36.8749 44.676 36.8022 45.0177 35.186 45.0177" fill="white"/>
<path class="carte" d="M20.4471 38.7201L17.5089 44.6827L14.5808 38.7502L14.5651 38.7201H13.3896L17.0168 45.9032L17.0336 45.9322H17.9854L21.6237 38.7201H20.4471Z" fill="white"/>
<path class="carte" d="M47.2608 41.1096C46.4778 41.1096 44.6592 41.1096 44.6592 43.5181C44.6592 45.9266 46.4823 45.9277 47.2608 45.9277H49.6721V45.0177H47.2608C46.0361 45.0177 45.7788 44.7073 45.7251 43.8397H49.9104V43.5226C49.9104 41.1141 48.1208 41.1141 47.2608 41.1141M45.7799 42.923C45.8739 42.3178 46.1401 42.0297 47.2608 42.0297C48.4541 42.0297 48.7371 42.3423 48.7953 42.923H45.7799Z" fill="white"/>
<path class="carte" d="M41.2827 41.1096C40.5054 41.1096 38.6823 41.1096 38.6823 43.5181C38.6823 45.9266 40.5054 45.9277 41.2827 45.9277H43.6997V45.0177H41.2827C40.058 45.0177 39.8019 44.7073 39.7471 43.8397H43.9334V43.5226C43.9334 41.1141 42.1439 41.1141 41.2827 41.1141M39.8019 42.923C39.8969 42.3178 40.1631 42.0297 41.2827 42.0297C42.4772 42.0297 42.7591 42.3423 42.8183 42.923H39.8019Z" fill="white"/>
<path class="carte" d="M29.048 41.1096C28.2651 41.1096 26.4476 41.1096 26.4476 43.5181C26.4476 45.9266 28.2651 45.9322 29.048 45.9322H31.4593V45.0177H29.048C27.8233 45.0177 27.5671 44.7073 27.5123 43.8397H31.6987V43.5226C31.6965 41.1096 29.9058 41.1096 29.048 41.1096ZM27.5683 42.9185C27.6622 42.3133 27.9284 42.0252 29.048 42.0252C30.2425 42.0252 30.5243 42.3379 30.5836 42.9185H27.5683Z" fill="white"/>
<path class="carte" d="M23.0487 41.1096C22.2657 41.1096 20.4471 41.1096 20.4471 43.5181C20.4471 45.9266 22.2702 45.9322 23.0487 45.9322H25.4589V45.0177H23.0487C21.8184 45.0177 21.5667 44.7073 21.513 43.8397H25.6983V43.5226C25.6983 41.1096 23.9087 41.1096 23.0487 41.1096ZM21.5678 42.923C21.6618 42.3178 21.9291 42.0297 23.0487 42.0297C24.242 42.0297 24.525 42.3423 24.5832 42.923H21.5678Z" fill="white"/>
<g clip-path="url(#clip2_283_1807)">
<path class="rose" d="M59.5616 42.353C59.2556 42.7502 58.9114 43.116 58.5341 43.4449C58.4806 43.487 58.4472 43.4845 58.4877 43.4449C59.7867 42.0019 61.1963 38.8165 59.3687 35.672C58.8316 36.0978 58.3859 36.6297 58.0591 37.2352C57.4745 36.3213 56.622 35.5517 55.5588 34.8687C55.5588 34.8687 52.8776 37.9038 54.0634 42.3001C50.644 42.7811 51.8858 45.4614 52.4275 45.8474C52.4525 45.8655 52.4751 45.8571 52.4394 45.8017C52.2477 45.5023 51.7096 44.455 52.818 43.4509C53.4133 42.9122 54.6575 42.7715 54.6575 42.7715C54.3742 40.6599 54.3944 38.7528 55.8148 36.6388C55.9958 36.759 58.0769 37.6886 58.1508 40.8114C58.3246 42.7703 57.3233 44.3371 56.3517 44.948C54.6301 45.8859 52.699 46.3465 51.019 46.7517C50.8762 46.7854 50.9321 46.801 51.0274 46.7974C55.0171 46.6267 58.5639 44.8037 59.9283 43.0697C60.1903 42.7354 60.3081 42.3662 60.1307 42.163C59.9533 41.9598 59.6343 42.2833 59.5628 42.3722M58.9199 39.7977C58.8688 39.1971 58.7246 38.6083 58.4925 38.0529C58.877 37.2412 59.2711 36.9406 59.2711 36.9406C59.2711 36.9406 60.0819 39.0498 59.3699 41.2167C58.9306 42.5574 58.4032 43.3679 58.121 43.7154C58.0579 43.7924 58.0019 43.8164 58.0365 43.7695C58.702 42.8593 59.0675 41.4103 58.9199 39.8013" fill="white"/>
</g>
</g>
<g clip-path="url(#clip3_283_1807)">
<mask id="mask0_283_1807" style="mask-type:alpha" maskUnits="userSpaceOnUse" x="65" y="37" width="47" height="12">
<path class="carte" d="M65.3896 48.8505H111.816V37.2834H65.3896V48.8505Z" fill="white"/>
</mask>
<g mask="url(#mask0_283_1807)">
<path class="carte" d="M102.66 45.7717H103.776V38.6475H102.66V45.7717ZM105.154 45.7717H106.27V40.4958H105.154V45.7717ZM105.049 39.1251C105.049 38.9277 105.115 38.7668 105.247 38.6421C105.379 38.5177 105.536 38.4552 105.72 38.4552C105.896 38.4525 106.066 38.5198 106.192 38.6424C106.323 38.7668 106.389 38.9277 106.389 39.1251C106.389 39.3225 106.323 39.4834 106.192 39.6079C106.066 39.7305 105.896 39.7979 105.719 39.7951C105.543 39.798 105.373 39.7306 105.247 39.6079C105.115 39.4834 105.049 39.3222 105.049 39.1251ZM108.388 44.1773C108.388 44.4613 108.493 44.6682 108.703 44.798C108.913 44.9278 109.162 44.9926 109.45 44.9926C109.7 44.9926 109.923 44.945 110.119 44.8498C110.315 44.7546 110.47 44.6467 110.585 44.5254V43.4559C110.529 43.421 110.43 43.3854 110.288 43.3493C110.146 43.3128 109.957 43.2947 109.721 43.2947C109.335 43.2947 109.017 43.3708 108.765 43.5232C108.514 43.6755 108.388 43.8935 108.388 44.1776V44.1773ZM107.272 44.2087C107.272 43.9247 107.331 43.673 107.45 43.4534C107.568 43.2345 107.735 43.0454 107.936 42.9002C108.142 42.751 108.381 42.6377 108.653 42.56C108.938 42.4805 109.232 42.4412 109.528 42.4432C109.771 42.4432 109.986 42.4648 110.173 42.5079C110.361 42.5514 110.498 42.5904 110.585 42.6247V42.3239C110.585 41.9776 110.476 41.725 110.259 41.5654C110.042 41.4067 109.755 41.3267 109.398 41.3267C109.087 41.3267 108.795 41.3778 108.522 41.48C108.248 41.5822 108.041 41.6939 107.899 41.8148H107.827V40.8075C107.876 40.7729 107.955 40.7288 108.066 40.6752C108.191 40.6156 108.321 40.5652 108.454 40.5244C108.603 40.4778 108.767 40.4371 108.947 40.4025C109.135 40.3671 109.326 40.3497 109.518 40.3505C109.837 40.3505 110.129 40.3895 110.396 40.4673C110.663 40.5454 110.892 40.6621 111.082 40.818C111.273 40.9735 111.424 41.1683 111.534 41.4019C111.646 41.6358 111.701 41.9084 111.701 42.2198V45.7714H110.688V45.3458C110.624 45.4147 110.553 45.4764 110.475 45.5299C110.371 45.6031 110.261 45.6659 110.145 45.7171C110.018 45.7743 109.873 45.8225 109.71 45.8625C109.531 45.904 109.348 45.9241 109.164 45.9221C108.91 45.9246 108.658 45.8851 108.417 45.8054C108.198 45.7333 107.995 45.6196 107.82 45.4705C107.649 45.3225 107.512 45.139 107.419 44.9329C107.321 44.7203 107.272 44.4785 107.272 44.2087ZM80.6257 44.4175C80.726 44.5248 80.8894 44.6365 81.116 44.7527C81.3426 44.8688 81.6082 44.9269 81.9126 44.9269C82.1551 44.9294 82.3958 44.8844 82.6209 44.7942C82.8296 44.7111 83.018 44.5844 83.1738 44.4226C83.329 44.2585 83.4499 44.065 83.5292 43.8536C83.616 43.6219 83.6591 43.3761 83.6562 43.1287C83.6562 42.8653 83.6156 42.6238 83.5343 42.4035C83.4589 42.193 83.3396 42.0008 83.1843 41.8399C83.0279 41.6814 82.8394 41.5582 82.6314 41.4787C82.4153 41.3937 82.1757 41.3511 81.9126 41.3511C81.6082 41.3511 81.3461 41.4006 81.1265 41.4994C80.9069 41.5981 80.7399 41.7047 80.6257 41.8189V44.4175ZM79.5101 47.5267V40.5003H80.5219V40.9256C80.6498 40.805 80.8497 40.6793 81.1214 40.5495C81.3927 40.4197 81.7276 40.3549 82.1255 40.3549C82.4905 40.3549 82.8345 40.4216 83.157 40.5549C83.4729 40.6841 83.7594 40.8758 83.9993 41.1185C84.2389 41.361 84.4277 41.6517 84.5651 41.9913C84.7032 42.3305 84.772 42.7063 84.772 43.1182C84.772 43.5365 84.7013 43.9167 84.56 44.2588C84.4268 44.5887 84.2311 44.8898 83.9837 45.1456C83.7432 45.3928 83.4549 45.5886 83.1363 45.7209C82.8163 45.8553 82.4726 45.924 82.1255 45.9231C81.7482 45.9231 81.4343 45.8628 81.1836 45.7422C80.9329 45.6219 80.7469 45.5118 80.6257 45.4121V47.5267H79.5101ZM85.6546 45.7727V40.5003H88.4728V41.4759H86.7705V45.7727H85.6546ZM89.411 45.7727H90.5268V40.5003H89.411V45.7727ZM89.3072 39.1302C89.3072 38.9328 89.3729 38.7722 89.5043 38.6478C89.636 38.5231 89.7931 38.4606 89.9765 38.4606C90.1599 38.4606 90.3174 38.5231 90.4487 38.6478C90.5801 38.7722 90.6461 38.9328 90.6461 39.1302C90.6461 39.3273 90.5801 39.4882 90.4487 39.6126C90.3174 39.7373 90.1599 39.7999 89.9765 39.7999C89.8005 39.8027 89.6306 39.7353 89.5043 39.6126C89.3729 39.4882 89.3072 39.3273 89.3072 39.1302Z" fill="white"/>
<path class="carte" d="M91.3057 40.4958H92.4948L93.5177 43.3572C93.5869 43.5336 93.645 43.6841 93.6916 43.8088C93.7386 43.9332 93.7773 44.0414 93.8084 44.1331C93.8398 44.2252 93.8681 44.3064 93.8941 44.3775C93.9201 44.4483 93.9436 44.5203 93.9642 44.593H93.9747C93.9953 44.5235 94.0179 44.4527 94.0423 44.38C94.0664 44.307 94.095 44.2248 94.128 44.1331C94.1607 44.0414 94.2007 43.9332 94.2473 43.8088C94.294 43.6841 94.3486 43.5336 94.4111 43.3572L95.4235 40.4958H96.6022L94.551 45.7717H93.3781L91.3057 40.4958ZM97.9998 44.1772C97.9998 44.4613 98.1049 44.6682 98.315 44.798C98.5244 44.9278 98.7739 44.9925 99.0617 44.9925C99.3115 44.9925 99.5346 44.9449 99.7304 44.8497C99.9266 44.7545 100.082 44.6466 100.196 44.5254V43.4559C100.141 43.421 100.042 43.3854 99.8996 43.3492C99.7574 43.3127 99.5683 43.2946 99.3324 43.2946C98.9472 43.2946 98.6289 43.3708 98.3772 43.5231C98.1258 43.6755 97.9998 43.8935 97.9998 44.1776V44.1772ZM96.8837 44.2087C96.8837 43.9246 96.943 43.6729 97.062 43.4533C97.1802 43.2344 97.3465 43.0453 97.5485 42.9002C97.7539 42.751 97.9929 42.6377 98.2655 42.5599C98.55 42.4804 98.8443 42.4411 99.1398 42.4432C99.3826 42.4432 99.5978 42.4647 99.7853 42.5079C99.9726 42.5514 100.11 42.5904 100.196 42.6247V42.3238C100.196 41.9776 100.088 41.725 99.871 41.5653C99.6543 41.4066 99.367 41.3267 99.0097 41.3267C98.6987 41.3267 98.4067 41.3778 98.1334 41.48C97.8605 41.5821 97.653 41.6939 97.5114 41.8148H97.4394V40.8075C97.4876 40.7729 97.567 40.7288 97.6774 40.6751C97.8033 40.6155 97.9333 40.5651 98.0665 40.5244C98.2282 40.4744 98.3927 40.4337 98.559 40.4025C98.7471 40.3671 98.938 40.3497 99.1293 40.3504C99.4483 40.3504 99.7412 40.3895 100.008 40.4672C100.275 40.5453 100.504 40.6621 100.694 40.8179C100.885 40.9734 101.035 41.1683 101.147 41.4019C101.258 41.6358 101.313 41.9084 101.313 42.2197V45.7714H100.3V45.3458C100.236 45.4147 100.164 45.4764 100.087 45.5298C99.9833 45.6031 99.8727 45.6658 99.7568 45.7171C99.6298 45.7742 99.4851 45.8225 99.322 45.8624C99.1428 45.904 98.9594 45.9241 98.7755 45.9221C98.5218 45.9245 98.2695 45.885 98.0287 45.8053C97.8099 45.7333 97.607 45.6196 97.4314 45.4705C97.2605 45.3223 97.1239 45.1388 97.0309 44.9326C96.9325 44.7199 96.8837 44.4781 96.8837 44.2083" fill="white"/>
</g>
<path class="privalia" d="M71.2329 37.064C69.6451 38.6518 70.2167 40.3667 70.4072 40.8748C70.5342 41.1924 71.1059 42.2086 71.2329 42.3991C71.3599 42.1451 71.9315 41.1924 72.0586 40.8748C72.3126 40.3667 72.8207 38.6518 71.2329 37.064ZM66.5329 39.414C66.7869 41.7005 68.4383 42.2721 68.9464 42.3991C69.3275 42.4626 70.4072 42.6532 70.6613 42.7167C70.5978 42.4626 70.1532 41.4464 69.9626 41.0653C69.7086 40.6208 68.7559 39.0964 66.5329 39.414ZM65.3896 44.6221C67.2315 45.8289 68.7559 44.8762 69.2005 44.6221C69.4545 44.4316 70.3437 43.6059 70.5342 43.4789C70.2802 43.4153 69.2005 43.0978 68.8829 43.0343C68.3113 42.8437 66.5329 42.7167 65.3896 44.6221ZM68.6288 48.814C70.7248 48.1153 70.9788 46.2735 70.9788 45.7653C70.9788 45.3843 70.9153 44.241 70.9153 43.987C70.7248 44.114 69.7721 44.8126 69.518 45.0032C69.0734 45.3843 67.8667 46.718 68.6288 48.814ZM73.9005 48.814C74.6626 46.718 73.4559 45.3843 73.0113 45.0667C72.7572 44.8126 71.8045 44.1775 71.614 44.0505C71.614 44.3045 71.5505 45.4478 71.5505 45.8289C71.5505 46.2735 71.8045 48.1153 73.9005 48.814ZM77.1396 44.6221C75.9964 42.7167 74.218 42.8437 73.7099 42.9708C73.3288 43.0343 72.2491 43.3518 72.0586 43.4153C72.2491 43.6059 73.0748 44.368 73.3924 44.5586C73.7734 44.9397 75.2978 45.8289 77.1396 44.6221ZM75.9964 39.414C73.7734 39.1599 72.8207 40.6208 72.5667 41.1289C72.3761 41.4464 71.9951 42.5262 71.868 42.7802C72.1221 42.7167 73.2018 42.5262 73.5829 42.4626C74.1545 42.2721 75.8059 41.637 75.9964 39.414Z" fill="white"/>
</g>
<path class="line" opacity="0.3" d="M122.816 1.83228H121.816V48.8323H122.816V1.83228Z" fill="white"/>
</g>
<defs>
<clipPath id="clip0_283_1807">
<rect width="122.427" height="48.9695" fill="white" transform="translate(0.389648 0.847534)"/>
</clipPath>
<clipPath id="clip1_283_1807">
<rect width="47" height="13.4695" fill="white" transform="translate(13.3896 34.8567)"/>
</clipPath>
<clipPath id="clip2_283_1807">
<rect width="9.45732" height="12.0366" fill="white" transform="translate(50.9323 34.8567)"/>
</clipPath>
<clipPath id="clip3_283_1807">
<rect width="46.4268" height="13.4695" fill="white" transform="translate(65.3896 36.3475)"/>
</clipPath>
</defs>
</svg>
