<?xml version="1.0" encoding="utf-8"?>
<!-- Generator: Adobe Illustrator 22.0.1, SVG Export Plug-In . SVG Version: 6.00 Build 0)  -->
<svg version="1.1" xmlns="http://www.w3.org/2000/svg" xmlns:xlink="http://www.w3.org/1999/xlink" x="0px" y="0px" xml:space="preserve" viewBox="0 0 140 32">
<title>carte-rose-1</title>
<path fill="#fff" class="carte" d="M12.1,5.5l-0.8,0.8c-0.6-0.5-1.3-0.8-2-0.8c-2,0-2.9,1.5-2.9,3c0,1.4,0.9,2.8,2.9,2.8c0.7,0,1.5-0.3,2.1-0.8l0.9,0.9
	c-0.7,0.7-1.8,1.2-3,1.2c-2.8,0-4.1-2-4.1-4c0-2.1,1.3-4.1,4.1-4.1C10.3,4.3,11.3,4.7,12.1,5.5z M21.2,10.7l-0.7,1.6h-1.3l3.4-7.8
	h1.2l3.3,7.8h-1.4l-0.7-1.6H21.2z M23.2,6l-1.5,3.6h3C24.6,9.5,23.2,6,23.2,6z M38.4,4.4c1.8,0,2.8,1.2,2.8,2.6
	c0,1.1-0.6,2.2-2.1,2.4l2.5,2.8h-1.7l-2.3-2.7H36v2.7h-1.2V4.4C34.8,4.4,38.4,4.4,38.4,4.4z M36,8.4h2.4c1,0,1.5-0.7,1.5-1.4
	c0-0.7-0.4-1.4-1.5-1.4H36V8.4z M52.2,5.6v6.7H51V5.6h-2.6V4.4h6.4v1.2H52.2z M63.8,5.6v2.2h3.9V9h-3.9v2.2h4.2v1.2h-5.4V4.4h5.4
	v1.2L63.8,5.6C63.8,5.6,63.8,5.6,63.8,5.6z M72.3,23v-1h0.6v5.5h-0.6v-0.9c-0.5,0.7-1.3,1.1-2.2,1.1c-1.6,0-2.8-1.2-2.8-2.9
	s1.3-2.9,2.8-2.9C71,21.9,71.9,22.3,72.3,23z M67.8,24.8c0,1.4,1,2.4,2.2,2.4c1.6,0,2.3-1.2,2.3-2.4s-0.8-2.4-2.3-2.4
	C68.8,22.4,67.8,23.4,67.8,24.8z M70,21.1l-1.4-1.9h0.7l1.2,1.9H70z"/>
<path fill="#ec008c" class="rose" d="M88.9,4.5c1.9,0,3,1.2,3,2.7c0,1-0.3,2-1.7,2.5l2.2,2.7h-2.6L88,9.9h-1v2.4H85V4.5C85,4.5,88.9,4.5,88.9,4.5z M87,8.2h2
	c0.7,0,1-0.6,1-1c0-0.5-0.3-0.9-1-0.9H87V8.2z M107.2,8.5c0,2-1.2,4-4.1,4s-4.1-2-4.1-4s1.2-4.1,4.1-4.1
	C105.9,4.4,107.2,6.4,107.2,8.5z M100.9,8.5c0,1.2,0.5,2.2,2.2,2.2s2.2-1,2.2-2.2s-0.5-2.4-2.2-2.4C101.4,6.1,100.9,7.3,100.9,8.5z
	 M121,5.7l-1.2,1.2c-0.6-0.4-1-0.8-1.9-0.8c-1,0-1.2,0.4-1.2,0.7c0,1,4.6,0.5,4.6,3.2c0,1.7-1.6,2.4-3.4,2.4s-3.1-0.9-3.5-2l1.6-0.8
	c0.3,0.8,1,1.1,2,1.1c0.9,0,1.4-0.2,1.4-0.6c0-1-4.6-0.4-4.6-3.3c0-1.6,1.5-2.4,3.1-2.4C119.6,4.4,120.6,5.1,121,5.7z M130.9,6.3
	v1.2h3.5v1.8h-3.5v1.2h3.8v1.8h-5.7V4.5h5.6v1.8H130.9z"/>
<path fill="#fff" class="line" d="M5.2,24.4h55.2v0.8H5.2C5.2,25.2,5.2,24.4,5.2,24.4z M79.6,24.4h55.2v0.8H79.6C79.6,25.2,79.6,24.4,79.6,24.4z"/>
</svg>
