<svg xmlns="http://www.w3.org/2000/svg" viewBox="0 0 120 52">
  <g>
    <path fill="#fff" d="M119.46 24.595v-.884h.54v5.195h-.54v-.89c-.413.636-1.133.984-1.965.984-1.385 0-2.494-1.101-2.494-2.667a2.677 2.677 0 01.711-1.881 2.444 2.444 0 011.783-.785c.837-.058 1.607.232 1.965.928zm-3.96 1.623c0 1.333.886 2.203 1.995 2.203 1.386 0 2.052-1.102 2.052-2.203 0-1.101-.665-2.203-2.052-2.203-1.107.058-1.995.93-1.995 2.203zm1.93-3.524L116.188 21h.648l1.026 1.694h-.432z" class="a" />
    <path fill="#fff" opacity=".3" d="M117 32h1v17h-1zM117 0h1v17h-1z" class="line"/>
    <path fill="#fff" d="M10.885 1.84L9.567 3.146A4.693 4.693 0 006.416 1.84c-3.093 0-4.465 2.375-4.465 4.75 0 2.312 1.375 4.51 4.465 4.51a4.525 4.525 0 003.209-1.365L11 11.16C9.854 12.348 8.135 13 6.416 13 2.009 13 0 9.854 0 6.53S2.063 0 6.416 0c1.719 0 3.266.593 4.469 1.84zM22.236 10.376L21.158 13H19l5.57-13h2.037L32 13h-2.278l-1.079-2.624h-6.407zm3.176-7.727l-2.465 5.938h4.868L25.412 2.65zM44.978 0c2.93 0 4.484 2.085 4.484 4.23 0 1.84-.897 3.68-3.467 4.048L50 13h-2.581L43.61 8.468h-2.577V13H39V0h5.978zm-3.826 6.56h3.927c1.718 0 2.51-1.102 2.51-2.326 0-1.102-.735-2.326-2.453-2.326h-3.984V6.56zM62.955 1.908V13h-2.022V1.908H57V0h10v1.908zM78.132 1.9v3.586h6.394v1.908h-6.394v3.578H85V13h-9V0h8.763v1.908h-6.75v.12h.119z" class="carte"/>
    <path fill="#ec008c" d="M7.408 20c3.648.058 5.671 2.386 5.671 5.114 0 1.86-.636 3.895-3.183 4.772L14 35H9.195l-3.447-4.66H3.762V35H0V20h7.408zm-3.762 7.045h3.851c1.404 0 1.93-1.05 1.93-1.865 0-.933-.643-1.75-1.988-1.77H3.762l-.114 3.635h-.002zM41 28.06c0 4-2.434 7.94-8.03 7.94-5.596 0-7.97-3.94-7.97-7.94S27.434 20 33.03 20c5.53-.059 7.97 4 7.97 8.06zm-12.252 0c0 2.387 1.01 4.42 4.222 4.42 3.213 0 4.223-2.03 4.223-4.42s-1.011-4.653-4.223-4.653c-3.21 0-4.222 2.265-4.222 4.653zM63.383 22.532l-2.334 2.46c-1.105-.9-2.026-1.563-3.868-1.563-1.966 0-2.513.782-2.513 1.323 0 1.985 9.332.962 9.332 6.436C64 34.496 60.746 36 57.123 36c-3.622 0-6.264-1.744-7.123-4.03l3.254-1.684c.553 1.564 2.027 2.226 3.991 2.226 1.843 0 2.887-.3 2.887-1.202 0-2.045-9.332-.722-9.332-6.497 0-3.187 3.07-4.811 6.263-4.811 3.434-.057 5.528 1.447 6.32 2.53zM76.742 23.415v2.337h6.691v3.383h-6.69v2.482H84V35H73V20h10.773v3.415c0 .058-7.03.058-7.03 0z" class="rose" />
    <path fill="#fff" d="M69.537 44.487c-1.493 0-2.834.191-2.834 2.496v4.975h1.094v-2.735c.521.242 1.169.263 1.74.263 1.5 0 2.836-.191 2.836-2.497s-1.34-2.5-2.836-2.5m0 4.043c-1.672 0-1.74-.32-1.74-1.548 0-1.2.074-1.547 1.74-1.547s1.742.347 1.742 1.547-.075 1.554-1.742 1.554M54.332 42.011L51.3 48.19l-3.02-6.147-.017-.032h-1.212l3.742 7.444.017.03h.982l3.753-7.474zM81.994 44.487c-.808 0-2.684 0-2.684 2.496s1.88 2.497 2.684 2.497h2.488v-.943h-2.488c-1.264 0-1.529-.322-1.584-1.22h4.32v-.33c0-2.495-1.845-2.495-2.733-2.495l-.003-.005zm-1.532 1.88c.096-.628.371-.926 1.527-.926 1.231 0 1.523.324 1.583.925h-3.11zM75.827 44.487c-.808 0-2.683 0-2.683 2.496s1.88 2.497 2.683 2.497h2.493v-.943h-2.493c-1.27 0-1.528-.322-1.585-1.22h4.32v-.33c0-2.495-1.847-2.495-2.735-2.495v-.005zm-1.528 1.88c.098-.628.373-.926 1.528-.926 1.232 0 1.523.324 1.584.925h-3.112zM63.205 44.487c-.808 0-2.683 0-2.683 2.496s1.875 2.502 2.683 2.502h2.487v-.948h-2.487c-1.27 0-1.528-.322-1.585-1.22h4.32v-.33c0-2.5-1.847-2.5-2.735-2.5zm-1.527 1.875c.097-.627.372-.926 1.527-.926 1.232 0 1.523.324 1.584.926h-3.11zM57.015 44.487c-.807 0-2.683 0-2.683 2.496s1.88 2.502 2.683 2.502h2.487v-.948h-2.487c-1.269 0-1.528-.322-1.584-1.22h4.318v-.33c0-2.5-1.846-2.5-2.734-2.5zm-1.527 1.88c.097-.628.372-.926 1.527-.926 1.232 0 1.523.324 1.583.925h-3.11z" class="carte"/>
    <path fill="#ec008c" d="M94.288 45.221c-.297.382-.63.734-.996 1.05-.052.041-.084.039-.045 0 1.26-1.388 2.625-4.453.854-7.478-.52.41-.952.921-1.27 1.504-.566-.88-1.392-1.62-2.422-2.277 0 0-2.599 2.92-1.45 7.15-3.313.463-2.11 3.042-1.585 3.413.024.018.046.01.012-.044-.186-.288-.708-1.296.367-2.262.577-.518 1.782-.653 1.782-.653-.274-2.032-.255-3.867 1.122-5.901.175.116 2.192 1.01 2.264 4.015.168 1.884-.808 3.392-1.744 3.98-1.668.902-3.54 1.345-5.168 1.735-.138.033-.084.048.008.044 3.867-.164 7.304-1.918 8.626-3.586.254-.322.369-.677.197-.873-.172-.195-.482.116-.55.202m-.624-2.478a5.538 5.538 0 00-.414-1.679c.373-.78.755-1.07.755-1.07s.785 2.03.095 4.115c-.425 1.29-.937 2.07-1.21 2.404-.061.074-.115.097-.082.052.645-.876 1-2.27.856-3.818" class="rose" />
    <path fill="#fff" d="M38.227 46.93a1.71 1.71 0 011.314-.615c.965 0 1.666.699 1.403 1.842C40.768 49.206 39.892 50 38.93 50c-.527 0-.965-.263-1.14-.614l-.087.527H37L37.876 45h.702l-.35 1.93zm-.166 1.15c-.087.7.26 1.13.869 1.13s1.13-.434 1.303-1.13c.087-.698-.26-1.13-.87-1.13-.608 0-1.215.348-1.302 1.13zM44.391 49.456c-.174.999-.956 1.544-1.913 1.544A2.094 2.094 0 0141 50.364l.522-.547c.229.35.624.557 1.043.547.521 0 1.043-.272 1.13-.818l.087-.635a1.73 1.73 0 01-1.304.547c-.782 0-1.304-.547-1.13-1.64l.261-1.815h.696l-.175 1.725c-.087.727.088.999.696.999a1.306 1.306 0 001.218-1.093l.26-1.634H45l-.609 3.456z" class="carte"/>
  </g>
</svg>
