<svg width="122" height="50" viewBox="0 0 122 50" fill="none" xmlns="http://www.w3.org/2000/svg">
<path class="line" opacity="0.3" d="M120.288 0.5V16.5905V18.23V46.2198H121.5V18.23V16.5905V0.5H120.288Z" fill="white"/>
<path class="carte" d="M33.236 43.9733C33.3471 43.8404 33.4859 43.7335 33.6427 43.66C33.7994 43.5866 33.9703 43.5483 34.1433 43.548C34.8093 43.548 35.2956 44.0351 35.1124 44.8202C34.9908 45.5473 34.3865 46.0925 33.7187 46.0925C33.5613 46.0998 33.4048 46.0641 33.2661 45.9892C33.1274 45.9142 33.0116 45.803 32.9312 45.6672L32.8695 46.0307H32.3849L32.991 42.6301H33.4755L33.236 43.9733ZM33.1144 44.8239C33.0527 45.3092 33.2959 45.6127 33.7205 45.6127C33.9389 45.6046 34.1479 45.5219 34.313 45.3784C34.478 45.2349 34.5891 45.0393 34.6278 44.8239C34.6877 44.3386 34.4464 44.0351 34.0218 44.0351C33.7977 44.022 33.5773 44.0971 33.4078 44.2445C33.2383 44.3919 33.133 44.5998 33.1144 44.8239Z" fill="white"/>
<path class="carte" d="M37.6601 45.8562C37.5403 46.5233 36.9941 46.8886 36.3263 46.8886C35.9412 46.886 35.5722 46.7335 35.2974 46.4633L35.6604 46.0998C35.7417 46.216 35.8506 46.3101 35.9773 46.3735C36.1041 46.437 36.2446 46.4679 36.3862 46.4633C36.7491 46.4633 37.1121 46.2815 37.1738 45.918L37.2355 45.4927C37.1168 45.6119 36.9752 45.7056 36.8192 45.7681C36.6632 45.8306 36.4961 45.8606 36.3281 45.8562C35.7837 45.8562 35.4208 45.4927 35.5406 44.7657L35.7221 43.5498H36.2084L36.0868 44.7039C36.0251 45.1892 36.1467 45.3728 36.5713 45.3728C36.7735 45.3639 36.967 45.2874 37.1209 45.1557C37.2748 45.024 37.3803 44.8445 37.4206 44.6458L37.602 43.5553H38.0865L37.6601 45.8562Z" fill="white"/>
<path class="carte" d="M68.3348 40.269C66.5764 40.269 64.9396 40.5126 64.9396 43.2443V49.1949H66.2733V45.9234C66.8794 46.2269 67.6688 46.2269 68.3348 46.2269C70.1494 46.2269 71.73 45.9852 71.73 43.2516C71.73 40.518 70.153 40.2763 68.3348 40.2763V40.269ZM68.3348 45.0746C66.3387 45.0746 66.2733 44.7111 66.2733 43.2571C66.2733 41.803 66.335 41.4395 68.3348 41.4395C70.3345 41.4395 70.3962 41.8648 70.3962 43.2571C70.3962 44.6493 70.3363 45.0746 68.3348 45.0746Z" fill="white"/>
<path class="carte" d="M50.1485 37.2939L46.512 44.6422L42.9353 37.2939H42.8736H41.4201L45.9059 46.1598L45.9658 46.2198H47.1181L51.6038 37.2939H50.1485Z" fill="white"/>
<path class="carte" d="M83.2474 40.269C82.2784 40.269 80.0355 40.269 80.0355 43.2443C80.0355 46.2196 82.2784 46.2196 83.2474 46.2196H86.218V45.0673H83.2474C81.7322 45.0673 81.4328 44.7038 81.3693 43.6133H86.5138V43.2498C86.5138 40.2745 84.3362 40.2745 83.2474 40.2745V40.269ZM81.4328 42.5228C81.5544 41.7958 81.8574 41.4323 83.2474 41.4323C84.6991 41.4323 85.0621 41.7958 85.1274 42.5228H81.4328Z" fill="white"/>
<path class="carte" d="M75.9127 40.269C74.9437 40.269 72.7008 40.269 72.7008 43.2443C72.7008 46.2196 74.9437 46.2196 75.9127 46.2196H78.8923V45.0673H75.9127C74.3975 45.0673 74.0981 44.7038 74.0327 43.6133H79.1863V43.2498C79.1863 40.2745 76.9434 40.2745 75.92 40.2745L75.9127 40.269ZM74.1053 42.5228C74.2269 41.7958 74.53 41.4323 75.92 41.4323C77.3717 41.4323 77.7346 41.7958 77.7999 42.5228H74.1053Z" fill="white"/>
<path class="carte" d="M60.7568 40.269C59.7878 40.269 57.5449 40.269 57.5449 43.2443C57.5449 46.2196 59.7878 46.2196 60.7568 46.2196H63.7274V45.0673H60.7568C59.2416 45.0673 58.9422 44.7038 58.8787 43.6133H64.0304V43.2498C64.0304 40.2745 61.8529 40.2745 60.7641 40.2745L60.7568 40.269ZM58.9495 42.5228C59.071 41.7958 59.3741 41.4323 60.7641 41.4323C62.2158 41.4323 62.5787 41.7958 62.644 42.5228H58.9495Z" fill="white"/>
<path class="carte" d="M53.3622 40.269C52.3914 40.269 50.1485 40.269 50.1485 43.2443C50.1485 46.2196 52.3914 46.2196 53.3622 46.2196H56.3328V45.0673H53.3622C51.847 45.0673 51.5476 44.7038 51.4823 43.6133H56.6358V43.2498C56.6358 40.2745 54.4583 40.2745 53.3695 40.2745L53.3622 40.269ZM51.5548 42.5228C51.6746 41.7958 51.9777 41.4323 53.3695 41.4323C54.8212 41.4323 55.1841 41.7958 55.2476 42.5228H51.5548Z" fill="white"/>
<path class="rose" d="M97.9786 41.1197C97.6225 41.5872 97.216 42.0138 96.7665 42.392C96.7066 42.452 96.6449 42.452 96.7066 42.392C98.2218 40.7562 99.8586 37.0485 97.7373 33.4661C97.1065 33.9551 96.5889 34.5752 96.2203 35.2837C95.5549 34.2513 94.5871 33.3425 93.3168 32.5574C92.3818 33.7504 91.7362 35.1446 91.4311 36.6302C91.1259 38.1158 91.1695 39.6521 91.5584 41.1179C87.6189 41.6632 89.0179 44.753 89.6785 45.1855C89.6785 45.1855 89.7402 45.1855 89.6785 45.1256C89.4371 44.762 88.831 43.5461 90.1031 42.3993C90.7709 41.7922 92.2262 41.6086 92.2262 41.6086C91.9214 39.1804 91.9214 36.9939 93.5582 34.5657C93.7396 34.6875 96.1658 35.7798 96.2801 39.3622C96.4616 41.6086 95.3093 43.4316 94.2187 44.0987C92.2226 45.1892 89.9743 45.6781 88.0344 46.1634C87.8529 46.2233 87.9146 46.2233 88.0344 46.2233C92.6418 46.0416 96.7646 43.9169 98.3416 41.9122C98.6446 41.5487 98.7644 41.1234 98.5829 40.8816C98.4015 40.6399 98.0984 41.0634 97.9768 41.1234L97.9786 41.1197ZM97.251 38.1481C97.1833 37.4623 97.0203 36.7893 96.7665 36.1488C97.1911 35.24 97.6738 34.8765 97.6738 34.8765C97.6738 34.8765 98.6446 37.3066 97.7954 39.7948C97.4884 40.8263 96.9965 41.7932 96.3436 42.6483C96.2838 42.7101 96.2221 42.77 96.2221 42.7101C97.0114 41.7377 97.4342 40.0383 97.2528 38.1553" fill="white"/>
<path class="rose" d="M0.5 0.621826H6.92563C8.13781 0.621826 9.10319 0.863557 9.89619 1.34884C10.682 1.82104 11.3303 2.49166 11.7762 3.29359C12.1822 4.07963 12.3902 4.95315 12.3822 5.83812C12.3673 6.72035 12.1605 7.5887 11.7762 8.38266C11.3515 9.23326 10.7454 9.77852 9.89619 10.3256C9.04694 10.8727 8.01623 11.0526 6.92563 11.0526H3.65928V15.1929H0.5V0.621826ZM6.92563 8.33177C7.25214 8.33293 7.57564 8.26928 7.87745 8.14449C8.17926 8.01971 8.45339 7.83626 8.68401 7.60476C9.10881 7.16653 9.34642 6.57978 9.34642 5.96898C9.34642 5.35819 9.10881 4.77143 8.68401 4.33321C8.45012 4.11011 8.17411 3.93602 7.87217 3.82117C7.57022 3.70632 7.24842 3.65301 6.92563 3.66436H3.65928V8.33177H6.92563Z" fill="white"/>
<path class="rose" d="M27.2333 0.621826H30.3871V15.2547H27.2333V0.621826Z" fill="white"/>
<path class="rose" d="M46.0873 0.621826H48.9363L55.2403 9.42591V0.621826H58.3869V15.2547H55.7865L49.1794 6.02533V15.2547H46.0945L46.0873 0.621826Z" fill="white"/>
<path class="rose" d="M82.8228 15.2547L78.5294 9.24416L77.1956 10.64V15.2547H74.0327V0.621826H77.1866V6.5724L82.3401 0.621826H86.2815L80.6416 6.81413L86.8241 15.2547H82.8228Z" fill="white"/>
<path class="carte" d="M0.5 22.3577H4.68274C5.65055 22.3577 6.43689 22.6 7.04177 23.0847C7.34477 23.3364 7.58868 23.6519 7.75616 24.0088C7.92364 24.3656 8.01057 24.7551 8.01078 25.1494C8.00259 25.6273 7.85774 26.0928 7.59342 26.4907C7.32984 26.8828 6.94851 27.1807 6.50463 27.3413C7.0553 27.4811 7.53141 27.8272 7.83476 28.3082C8.15648 28.7714 8.32586 29.3235 8.31927 29.8877C8.31927 30.8582 8.01623 31.5871 7.35026 32.0124C6.58486 32.4744 5.70307 32.7066 4.80976 32.6812H0.559883V22.3577H0.5ZM4.56116 26.7906C5.95661 26.7906 6.68247 26.2454 6.68247 25.213C6.68247 24.6059 6.50101 24.2406 6.07638 23.9407C5.64202 23.6651 5.13887 23.5177 4.62467 23.5154H1.83376V26.787L4.56116 26.7906ZM4.74262 31.3453C6.25966 31.3453 6.98733 30.8001 6.98733 29.7096C6.98733 29.1025 6.80586 28.6772 6.31954 28.3737C5.79748 28.0338 5.18338 27.8637 4.56116 27.8866H1.77025V31.349L4.74262 31.3453Z" fill="white"/>
<path class="carte" d="M19.2325 22.3575H23.9088C24.5672 22.3526 25.2154 22.5205 25.7888 22.8446C26.3046 23.1193 26.7267 23.5421 27.001 24.0587C27.2423 24.604 27.4256 25.0911 27.4256 25.6945C27.4477 26.0999 27.3874 26.5055 27.2482 26.8868C27.109 27.2681 26.8938 27.617 26.6158 27.9125C26.3378 28.2079 26.0028 28.4436 25.631 28.6054C25.2592 28.7671 24.8585 28.8515 24.4532 28.8534L27.8466 32.6793H26.0864L22.8727 28.9751H20.5136V32.6793H19.1799V22.3557L19.2325 22.3575ZM23.8399 27.7011C24.5657 27.7011 25.1736 27.5193 25.5365 27.094C25.9194 26.6809 26.1354 26.14 26.1426 25.5764C26.1265 25.2399 26.0439 24.91 25.8995 24.6058C25.7247 24.2875 25.4757 24.0162 25.1736 23.8152C24.803 23.608 24.384 23.5032 23.9596 23.5117H20.6261V27.692L23.8399 27.7011Z" fill="white"/>
<path class="carte" d="M44.935 30.3073H39.7833L38.876 32.5537H37.6057L41.8483 22.292H43.1821L47.2451 32.5537H45.8496L44.935 30.3073ZM44.5721 29.0932L42.4508 23.8096L40.3277 29.1531L44.5721 29.0932Z" fill="white"/>
<path class="carte" d="M58.2054 22.3577H59.3577L65.1228 30.3075V22.3577H66.4566V32.6194H65.3678L59.5483 24.6059V32.6194H58.2054V22.3577Z" fill="white"/>
<path class="carte" d="M77.9142 22.3575H81.6143C82.7031 22.3575 83.7374 22.5393 84.4633 23.0264C85.1944 23.4722 85.7997 24.0979 86.2216 24.8439C86.6415 25.605 86.8507 26.4646 86.8277 27.3339C86.8425 28.2409 86.633 29.1375 86.218 29.9439C85.8551 30.7345 85.249 31.3415 84.4596 31.8868C83.6721 32.3715 82.7043 32.6138 81.5562 32.6138H77.8525L77.9142 22.3521V22.3575ZM81.6723 31.2161C82.5809 31.2161 83.3067 31.0344 83.8499 30.6709C84.3853 30.2784 84.8385 29.7843 85.1837 29.2168C85.4456 28.6023 85.589 27.9437 85.6065 27.2757C85.5962 26.6284 85.4535 25.99 85.1873 25.4C84.9459 24.793 84.4614 24.3677 83.8535 24.0024C83.2089 23.6314 82.4756 23.4429 81.7322 23.4571H79.3079V31.2161H81.6723Z" fill="white"/>
</svg>
