<svg xmlns="http://www.w3.org/2000/svg" fill="none" viewBox="0 0 448 59">
  <g filter="url(#a)">
    <path fill="#fff" d="M8 7h187v42H8z"/>
    <path fill="#464650" d="M79.523 32v-8.364h1.5v6.984h3.576V32h-5.076Zm8.38-6.036c1.56 0 2.532.876 2.532 2.304V32h-1.32l-.12-.768c-.348.552-1.02.888-1.8.888-1.247 0-2.135-.804-2.135-1.932 0-.696.311-1.224.888-1.488.396-.18.9-.264 1.572-.264h1.476v-.168c0-.648-.432-1.044-1.117-1.044-.6 0-1.163.312-1.596.888l-1.043-.876c.708-.852 1.584-1.272 2.663-1.272Zm-.48 4.932c.864 0 1.573-.612 1.573-1.38h-1.284c-.493 0-.78.06-.972.204a.567.567 0 0 0-.24.492c0 .42.347.684.924.684Zm7.684-4.932c1.452 0 2.496 1.14 2.496 3.072 0 1.776-.888 3.084-2.496 3.084-.636 0-1.296-.204-1.704-.708V32h-1.44v-8.364h1.44v3.048c.372-.444 1.032-.72 1.704-.72Zm-.348 4.824c.96 0 1.404-.648 1.404-1.74 0-1.104-.456-1.776-1.416-1.776-1.032 0-1.476.792-1.476 1.776s.444 1.74 1.488 1.74Zm9.111-1.824c0 .18-.012.36-.036.552h-4.056c.06.78.54 1.296 1.476 1.296.528 0 1.008-.168 1.416-.636l.996.876c-.648.72-1.428 1.068-2.424 1.068-2.04 0-2.904-1.464-2.904-3.048 0-1.548.84-3.108 2.808-3.108 1.836 0 2.724 1.356 2.724 3Zm-4.104-.588h2.724c-.024-.756-.6-1.212-1.356-1.212-.876 0-1.284.624-1.368 1.212Zm6.619 3.744c-.804 0-1.392-.48-1.392-1.536v-6.948h1.44v6.852c0 .264.156.372.42.372a1.7 1.7 0 0 0 .456-.072v1.152c-.324.12-.648.18-.924.18Zm7.662 0c-2.592 0-2.904-2.532-2.904-4.296 0-1.788.288-4.32 2.82-4.32 2.304 0 2.892 2.244 2.892 4.332 0 2.064-.564 4.284-2.808 4.284Zm-.036-1.38c1.272 0 1.296-1.584 1.296-2.928 0-1.416-.036-2.928-1.344-2.928s-1.344 1.524-1.344 2.94c0 1.368.036 2.916 1.392 2.916Zm6.839-7.104h1.44V32h-1.44v-5.856h-1.956v-1.2h1.116c.576 0 .84-.24.84-.804v-.504Z"/>
  </g>
  <g filter="url(#b)">
    <path fill="#fff" d="M203 7h187v42H203z"/>
    <path fill="#464650" d="M260.523 32v-8.364h1.5v6.984h3.576V32h-5.076Zm8.38-6.036c1.56 0 2.532.876 2.532 2.304V32h-1.32l-.12-.768c-.348.552-1.02.888-1.8.888-1.248 0-2.136-.804-2.136-1.932 0-.696.312-1.224.888-1.488.396-.18.9-.264 1.572-.264h1.476v-.168c0-.648-.432-1.044-1.116-1.044-.6 0-1.164.312-1.596.888l-1.044-.876c.708-.852 1.584-1.272 2.664-1.272Zm-.48 4.932c.864 0 1.572-.612 1.572-1.38h-1.284c-.492 0-.78.06-.972.204a.567.567 0 0 0-.24.492c0 .42.348.684.924.684Zm7.684-4.932c1.452 0 2.496 1.14 2.496 3.072 0 1.776-.888 3.084-2.496 3.084-.636 0-1.296-.204-1.704-.708V32h-1.44v-8.364h1.44v3.048c.372-.444 1.032-.72 1.704-.72Zm-.348 4.824c.96 0 1.404-.648 1.404-1.74 0-1.104-.456-1.776-1.416-1.776-1.032 0-1.476.792-1.476 1.776s.444 1.74 1.488 1.74Zm9.111-1.824c0 .18-.012.36-.036.552h-4.056c.06.78.54 1.296 1.476 1.296.528 0 1.008-.168 1.416-.636l.996.876c-.648.72-1.428 1.068-2.424 1.068-2.04 0-2.904-1.464-2.904-3.048 0-1.548.84-3.108 2.808-3.108 1.836 0 2.724 1.356 2.724 3Zm-4.104-.588h2.724c-.024-.756-.6-1.212-1.356-1.212-.876 0-1.284.624-1.368 1.212Zm6.619 3.744c-.804 0-1.392-.48-1.392-1.536v-6.948h1.44v6.852c0 .264.156.372.42.372a1.7 1.7 0 0 0 .456-.072v1.152c-.324.12-.648.18-.924.18Zm7.662 0c-2.592 0-2.904-2.532-2.904-4.296 0-1.788.288-4.32 2.82-4.32 2.304 0 2.892 2.244 2.892 4.332 0 2.064-.564 4.284-2.808 4.284Zm-.036-1.38c1.272 0 1.296-1.584 1.296-2.928 0-1.416-.036-2.928-1.344-2.928s-1.344 1.524-1.344 2.94c0 1.368.036 2.916 1.392 2.916Zm6.551-.096h3.396V32h-5.856v-1.188c1.476-.9 4.068-2.628 4.068-4.584 0-.756-.384-1.308-1.212-1.308-1.056 0-1.392.9-1.428 1.764l-1.416-.108c0-1.536 1.008-3.048 2.868-3.048 1.536 0 2.628 1.032 2.628 2.592 0 1.884-1.608 3.636-3.048 4.524Z"/>
    <path fill="#464650" fill-rule="evenodd" d="m327.897 35.274-3.629-.87-1.283 1.193.033 1.3-1.658-.254-3.329-.654-1.127-1.131.572-.639.416-4.965-1.361-1.034-.649-1.75-2.563-.78-.254-1.076 1.114-.603 1.344.563 1.522-.105-.232-2.52.438.02.798.76 1.489-.095.636-.896 1.39-.862.344-1.492.901-.322 2.115 1.685.074.02c-.862.755-1.416 1.844-1.416 3.068 0 2.28 2.994 6.47 4.207 8.206.001.002.004 0 .004 0 .22-.336.51-.761.835-1.243l.092 2.591.847.383.093.235-1.763 1.267Zm-1.383-13.335a2.34 2.34 0 0 1 1.277-.384c.386 0 .744.103 1.068.268.258.133.49.307.685.521a2.482 2.482 0 0 1 .041 3.308c-.44.51-1.077.839-1.794.839-1.328 0-2.406-1.106-2.406-2.468 0-.88.454-1.648 1.129-2.084Zm3.106 10.824-.112-3.226-.03-.027c1.224-1.9 2.522-4.187 2.522-5.675 0-2.28-1.884-4.13-4.209-4.13-.62 0-1.206.14-1.736.377l-.647-.148L322.979 18l-1.852.662-.371 1.61-1.138.706-.57.74-.662.042-.757-.721-1.833-.08.242 2.631-.364.026-1.546-.647L312 24.12l.549 2.32 2.634.802.583 1.572 1.164.883-.345 4.118-.966 1.076 1.967 1.973 3.619.71 2.764.425-.051-1.994.611-.566 3.561.852 2.703-1.945-.513-1.286-.66-.298Z" clip-rule="evenodd"/>
  </g>
  <g filter="url(#c)">
    <path fill="#fff" d="M398 7h42v42h-42z"/>
    <path fill="#EC008C" fill-rule="evenodd" d="M423.964 33.935c-1.69.122-2.977-.53-3.75-1.082 1.189-.193 3.067-.754 4.903-2.341 1.258.273 2.21 1.065 2.638 1.487-.452.571-1.658 1.79-3.791 1.936Zm-4.947 2.899c-.566-.397-1.516-1.208-1.516-1.898 0-.346.766-.939 1.519-1.312.514.217 1.419.734 1.477 1.401.054.609-.852 1.392-1.48 1.809Zm-4.981-2.899c-2.146-.147-3.343-1.362-3.793-1.936.431-.426 1.398-1.234 2.688-1.498 1.829 1.587 3.682 2.153 4.858 2.35-.769.551-2.05 1.204-3.753 1.084Zm-3.075-9.964c.949-.066 3.586.038 5.773 2.632 1.256 1.49 1.657 3.11 1.771 4.257a8.46 8.46 0 0 0-.042 1.075c-.974-.097-3.18-.533-5.252-2.521-2.198-2.11-2.301-4.534-2.25-5.443Zm8.031-3.849c.646.415 2.516 1.875 2.507 4.886a8.802 8.802 0 0 0-2.474 3.604 8.618 8.618 0 0 0-1.524-2.647 9.497 9.497 0 0 0-.995-1.007c.043-3.068 1.846-4.445 2.486-4.836Zm7.665 3.833c.149 0 .279.005.387.013.061.899-.008 3.348-2.194 5.446-2.073 1.989-4.314 2.425-5.303 2.521.012-.28.01-.644-.027-1.07.13-1.148.549-2.769 1.807-4.262 1.949-2.313 4.192-2.648 5.33-2.648Zm2.127 7.689c-.051-.063-1.115-1.346-2.84-1.935 2.64-2.884 2.07-6.135 2.043-6.278l-.062-.33-.332-.065c-.129-.028-2.577-.467-5.128 1.22-.334-3.668-3.116-5.087-3.242-5.149l-.216-.107-.219.101c-.124.059-2.878 1.38-3.246 5.125-2.548-1.65-5.004-1.214-5.134-1.191l-.338.066-.059.339c-.023.142-.535 3.376 2.089 6.252-1.752.581-2.833 1.889-2.884 1.952l-.216.266.172.294c.059.102 1.486 2.494 4.797 2.721a6.57 6.57 0 0 0 2.601-.351 1.184 1.184 0 0 0-.069.362c0 1.507 2.018 2.772 2.247 2.911l.253.153.257-.146c.243-.138 2.37-1.396 2.235-2.917-.011-.134-.054-.253-.093-.375a6.538 6.538 0 0 0 2.631.363c3.311-.227 4.739-2.619 4.797-2.721l.172-.294-.216-.266Z" clip-rule="evenodd"/>
    <path fill="url(#d)" fill-rule="evenodd" d="M423.964 33.935c-1.69.122-2.977-.53-3.75-1.082 1.189-.193 3.067-.754 4.903-2.341 1.258.273 2.21 1.065 2.638 1.487-.452.571-1.658 1.79-3.791 1.936Zm-4.947 2.899c-.566-.397-1.516-1.208-1.516-1.898 0-.346.766-.939 1.519-1.312.514.217 1.419.734 1.477 1.401.054.609-.852 1.392-1.48 1.809Zm-4.981-2.899c-2.146-.147-3.343-1.362-3.793-1.936.431-.426 1.398-1.234 2.688-1.498 1.829 1.587 3.682 2.153 4.858 2.35-.769.551-2.05 1.204-3.753 1.084Zm-3.075-9.964c.949-.066 3.586.038 5.773 2.632 1.256 1.49 1.657 3.11 1.771 4.257a8.46 8.46 0 0 0-.042 1.075c-.974-.097-3.18-.533-5.252-2.521-2.198-2.11-2.301-4.534-2.25-5.443Zm8.031-3.849c.646.415 2.516 1.875 2.507 4.886a8.802 8.802 0 0 0-2.474 3.604 8.618 8.618 0 0 0-1.524-2.647 9.497 9.497 0 0 0-.995-1.007c.043-3.068 1.846-4.445 2.486-4.836Zm7.665 3.833c.149 0 .279.005.387.013.061.899-.008 3.348-2.194 5.446-2.073 1.989-4.314 2.425-5.303 2.521.012-.28.01-.644-.027-1.07.13-1.148.549-2.769 1.807-4.262 1.949-2.313 4.192-2.648 5.33-2.648Zm2.127 7.689c-.051-.063-1.115-1.346-2.84-1.935 2.64-2.884 2.07-6.135 2.043-6.278l-.062-.33-.332-.065c-.129-.028-2.577-.467-5.128 1.22-.334-3.668-3.116-5.087-3.242-5.149l-.216-.107-.219.101c-.124.059-2.878 1.38-3.246 5.125-2.548-1.65-5.004-1.214-5.134-1.191l-.338.066-.059.339c-.023.142-.535 3.376 2.089 6.252-1.752.581-2.833 1.889-2.884 1.952l-.216.266.172.294c.059.102 1.486 2.494 4.797 2.721a6.57 6.57 0 0 0 2.601-.351 1.184 1.184 0 0 0-.069.362c0 1.507 2.018 2.772 2.247 2.911l.253.153.257-.146c.243-.138 2.37-1.396 2.235-2.917-.011-.134-.054-.253-.093-.375a6.538 6.538 0 0 0 2.631.363c3.311-.227 4.739-2.619 4.797-2.721l.172-.294-.216-.266Z" clip-rule="evenodd"/>
    <path stroke="#EC008C" d="M398.5 7.5h41v41h-41z"/>
    <path stroke="url(#e)" d="M398.5 7.5h41v41h-41z"/>
  </g>
  <defs>
    <filter id="a" width="203" height="59" x="0" y="0" color-interpolation-filters="sRGB" filterUnits="userSpaceOnUse">
      <feFlood flood-opacity="0" result="BackgroundImageFix"/>
      <feColorMatrix in="SourceAlpha" result="hardAlpha" values="0 0 0 0 0 0 0 0 0 0 0 0 0 0 0 0 0 0 127 0"/>
      <feMorphology in="SourceAlpha" radius="1" result="effect1_dropShadow_2363_3219"/>
      <feOffset dy="1"/>
      <feGaussianBlur stdDeviation=".5"/>
      <feColorMatrix values="0 0 0 0 0.133333 0 0 0 0 0.133333 0 0 0 0 0.168627 0 0 0 0.08 0"/>
      <feBlend in2="BackgroundImageFix" result="effect1_dropShadow_2363_3219"/>
      <feColorMatrix in="SourceAlpha" result="hardAlpha" values="0 0 0 0 0 0 0 0 0 0 0 0 0 0 0 0 0 0 127 0"/>
      <feMorphology in="SourceAlpha" radius="2" result="effect2_dropShadow_2363_3219"/>
      <feOffset dy="4"/>
      <feGaussianBlur stdDeviation="4"/>
      <feColorMatrix values="0 0 0 0 0.133333 0 0 0 0 0.133333 0 0 0 0 0.168627 0 0 0 0.08 0"/>
      <feBlend in2="effect1_dropShadow_2363_3219" result="effect2_dropShadow_2363_3219"/>
      <feColorMatrix in="SourceAlpha" result="hardAlpha" values="0 0 0 0 0 0 0 0 0 0 0 0 0 0 0 0 0 0 127 0"/>
      <feMorphology in="SourceAlpha" radius="2" result="effect3_dropShadow_2363_3219"/>
      <feOffset dy="1"/>
      <feGaussianBlur stdDeviation="5"/>
      <feColorMatrix values="0 0 0 0 0.133333 0 0 0 0 0.133333 0 0 0 0 0.168627 0 0 0 0.1 0"/>
      <feBlend in2="effect2_dropShadow_2363_3219" result="effect3_dropShadow_2363_3219"/>
      <feBlend in="SourceGraphic" in2="effect3_dropShadow_2363_3219" result="shape"/>
    </filter>
    <filter id="b" width="203" height="59" x="195" y="0" color-interpolation-filters="sRGB" filterUnits="userSpaceOnUse">
      <feFlood flood-opacity="0" result="BackgroundImageFix"/>
      <feColorMatrix in="SourceAlpha" result="hardAlpha" values="0 0 0 0 0 0 0 0 0 0 0 0 0 0 0 0 0 0 127 0"/>
      <feMorphology in="SourceAlpha" radius="1" result="effect1_dropShadow_2363_3219"/>
      <feOffset dy="1"/>
      <feGaussianBlur stdDeviation=".5"/>
      <feColorMatrix values="0 0 0 0 0.133333 0 0 0 0 0.133333 0 0 0 0 0.168627 0 0 0 0.08 0"/>
      <feBlend in2="BackgroundImageFix" result="effect1_dropShadow_2363_3219"/>
      <feColorMatrix in="SourceAlpha" result="hardAlpha" values="0 0 0 0 0 0 0 0 0 0 0 0 0 0 0 0 0 0 127 0"/>
      <feMorphology in="SourceAlpha" radius="2" result="effect2_dropShadow_2363_3219"/>
      <feOffset dy="4"/>
      <feGaussianBlur stdDeviation="4"/>
      <feColorMatrix values="0 0 0 0 0.133333 0 0 0 0 0.133333 0 0 0 0 0.168627 0 0 0 0.08 0"/>
      <feBlend in2="effect1_dropShadow_2363_3219" result="effect2_dropShadow_2363_3219"/>
      <feColorMatrix in="SourceAlpha" result="hardAlpha" values="0 0 0 0 0 0 0 0 0 0 0 0 0 0 0 0 0 0 127 0"/>
      <feMorphology in="SourceAlpha" radius="2" result="effect3_dropShadow_2363_3219"/>
      <feOffset dy="1"/>
      <feGaussianBlur stdDeviation="5"/>
      <feColorMatrix values="0 0 0 0 0.133333 0 0 0 0 0.133333 0 0 0 0 0.168627 0 0 0 0.1 0"/>
      <feBlend in2="effect2_dropShadow_2363_3219" result="effect3_dropShadow_2363_3219"/>
      <feBlend in="SourceGraphic" in2="effect3_dropShadow_2363_3219" result="shape"/>
    </filter>
    <filter id="c" width="58" height="59" x="390" y="0" color-interpolation-filters="sRGB" filterUnits="userSpaceOnUse">
      <feFlood flood-opacity="0" result="BackgroundImageFix"/>
      <feColorMatrix in="SourceAlpha" result="hardAlpha" values="0 0 0 0 0 0 0 0 0 0 0 0 0 0 0 0 0 0 127 0"/>
      <feMorphology in="SourceAlpha" radius="1" result="effect1_dropShadow_2363_3219"/>
      <feOffset dy="1"/>
      <feGaussianBlur stdDeviation=".5"/>
      <feColorMatrix values="0 0 0 0 0.133333 0 0 0 0 0.133333 0 0 0 0 0.168627 0 0 0 0.08 0"/>
      <feBlend in2="BackgroundImageFix" result="effect1_dropShadow_2363_3219"/>
      <feColorMatrix in="SourceAlpha" result="hardAlpha" values="0 0 0 0 0 0 0 0 0 0 0 0 0 0 0 0 0 0 127 0"/>
      <feMorphology in="SourceAlpha" radius="2" result="effect2_dropShadow_2363_3219"/>
      <feOffset dy="4"/>
      <feGaussianBlur stdDeviation="4"/>
      <feColorMatrix values="0 0 0 0 0.133333 0 0 0 0 0.133333 0 0 0 0 0.168627 0 0 0 0.08 0"/>
      <feBlend in2="effect1_dropShadow_2363_3219" result="effect2_dropShadow_2363_3219"/>
      <feColorMatrix in="SourceAlpha" result="hardAlpha" values="0 0 0 0 0 0 0 0 0 0 0 0 0 0 0 0 0 0 127 0"/>
      <feMorphology in="SourceAlpha" radius="2" result="effect3_dropShadow_2363_3219"/>
      <feOffset dy="1"/>
      <feGaussianBlur stdDeviation="5"/>
      <feColorMatrix values="0 0 0 0 0.133333 0 0 0 0 0.133333 0 0 0 0 0.168627 0 0 0 0.1 0"/>
      <feBlend in2="effect2_dropShadow_2363_3219" result="effect3_dropShadow_2363_3219"/>
      <feBlend in="SourceGraphic" in2="effect3_dropShadow_2363_3219" result="shape"/>
    </filter>
    <linearGradient id="d" x1="409" x2="428.831" y1="35.661" y2="29.56" gradientUnits="userSpaceOnUse">
      <stop stop-color="#E7A541"/>
      <stop offset="1" stop-color="#E7A541" stop-opacity="0"/>
    </linearGradient>
    <linearGradient id="e" x1="398" x2="440" y1="43.831" y2="31.554" gradientUnits="userSpaceOnUse">
      <stop stop-color="#E7A541"/>
      <stop offset="1" stop-color="#E7A541" stop-opacity="0"/>
    </linearGradient>
  </defs>
</svg>
