<svg xmlns="http://www.w3.org/2000/svg" fill="none" viewBox="0 0 310 71">
  <path fill="#22222B" d="M1.824 12V.848h3.024c3.632 0 5.696 2.064 5.696 5.664 0 3.552-2.016 5.488-5.712 5.488H1.824Zm1.136-1.056h1.776c3.12 0 4.656-1.472 4.656-4.48 0-3.024-1.536-4.56-4.56-4.56H2.96v9.04Zm16.378-3.28c0 .224-.016.496-.048.688h-5.776c.032 1.728.992 2.768 2.544 2.768.864 0 1.552-.224 2.272-.992l.768.672c-.928.976-1.84 1.328-3.056 1.328-2.4 0-3.632-1.792-3.632-4.032 0-2.224 1.216-4.112 3.504-4.112 2.416 0 3.424 1.888 3.424 3.68Zm-3.424-2.752c-1.424 0-2.304 1.12-2.4 2.512h4.768c0-.032-.016-.112-.016-.256-.08-1.28-.896-2.256-2.352-2.256Zm8.035 7.216c-1.552 0-2.816-.8-3.232-2.064l.928-.416c.288.816 1.056 1.504 2.288 1.504 1.072 0 1.76-.528 1.76-1.36 0-2.096-4.544-.784-4.544-3.584 0-1.376 1.12-2.224 2.704-2.224 1.264 0 2.288.528 2.832 1.648l-.88.48c-.384-.704-1.008-1.152-1.984-1.152s-1.6.4-1.6 1.088c0 1.872 4.56.688 4.56 3.68 0 1.6-1.312 2.4-2.832 2.4Zm8.333-1.184.017.976c-.416.128-.832.208-1.2.208-1.056 0-1.825-.592-1.825-1.984V5.04h-1.312v-.928h1.313V2.064l1.104-.832v2.88h1.903v.928H30.38V10c0 .768.351 1.12.976 1.12.271 0 .575-.064.927-.176Zm2.016-8.464V.848h1.28V2.48h-1.28Zm.096 9.52V4.112h1.104V12h-1.104Zm7.727-8.016c1.696 0 2.576 1.088 2.576 3.184V12h-1.104V7.44c0-1.696-.544-2.48-1.728-2.48-1.488 0-2.352 1.28-2.352 3.504V12H38.41V4.112h1.104v1.152c.512-.8 1.472-1.28 2.608-1.28Zm8.04 0c1.984 0 3.136 1.136 3.136 3.104V12h-1.008l-.064-1.216c-.624.88-1.584 1.344-2.832 1.344-1.712 0-2.72-.896-2.72-2.416 0-.8.32-1.408.896-1.76.608-.352 1.456-.496 3.008-.496h1.616v-.368c0-1.376-.72-2.128-2.048-2.128-.992 0-1.76.432-2.4 1.312l-.8-.672c.848-1.104 1.872-1.616 3.216-1.616Zm-.448 7.232c1.52 0 2.48-1.072 2.48-2.752v-.112h-1.52c-1.456 0-2.08.096-2.464.4-.288.224-.432.576-.432 1.024 0 .88.752 1.44 1.936 1.44Zm9.538-.272.016.976c-.416.128-.832.208-1.2.208-1.056 0-1.824-.592-1.824-1.984V5.04h-1.312v-.928h1.312V2.064l1.104-.832v2.88h1.904v.928h-1.904V10c0 .768.352 1.12.976 1.12.272 0 .576-.064.928-.176Zm2.015-8.464V.848h1.28V2.48h-1.28Zm.096 9.52V4.112h1.104V12h-1.104Zm7.104.128c-2.256 0-3.776-1.744-3.776-4.08 0-2.336 1.52-4.064 3.776-4.064 2.24 0 3.792 1.728 3.792 4.064 0 2.32-1.536 4.08-3.792 4.08Zm0-.976c1.696 0 2.688-1.344 2.688-3.104 0-1.792-1.008-3.088-2.688-3.088-1.696 0-2.672 1.312-2.672 3.088 0 1.792.992 3.104 2.672 3.104Zm9.733-7.168c1.696 0 2.576 1.088 2.576 3.184V12h-1.104V7.44c0-1.696-.544-2.48-1.728-2.48-1.488 0-2.352 1.28-2.352 3.504V12h-1.104V4.112h1.104v1.152c.512-.8 1.472-1.28 2.608-1.28ZM5.424 37V23.032H.192v-2.76H13.68v2.76H8.448V37H5.424Zm9.872-14.064v-2.664h3.024v2.664h-3.024ZM15.367 37V25.168h2.88V37h-2.88Zm12.546-9.552h-2.952v6.024c0 .936.576 1.368 1.512 1.368.408 0 .912-.096 1.44-.264v2.304c-.72.24-1.44.36-2.16.36-1.992 0-3.672-1.032-3.672-3.552v-6.24h-1.92v-2.28h1.92v-2.28l2.88-2.136v4.416h2.952v2.28Zm4.602 9.792c-1.608 0-2.784-.96-2.784-3.072V20.272h2.88v13.704c0 .528.312.744.84.744.264 0 .576-.048.912-.144v2.304c-.648.24-1.296.36-1.848.36Zm14.096-6.312c0 .36-.024.72-.072 1.104h-8.112c.12 1.56 1.08 2.592 2.952 2.592 1.056 0 2.016-.336 2.832-1.272l1.992 1.752c-1.296 1.44-2.856 2.136-4.848 2.136-4.08 0-5.808-2.928-5.808-6.096 0-3.096 1.68-6.216 5.616-6.216 3.672 0 5.448 2.712 5.448 6Zm-8.208-1.176h5.448c-.048-1.512-1.2-2.424-2.712-2.424-1.752 0-2.568 1.248-2.736 2.424Zm21.28 7.488c-3.671 0-5.927-2.832-5.927-6.168 0-3.36 2.256-6.144 5.928-6.144 3.648 0 5.928 2.784 5.928 6.144 0 3.336-2.28 6.168-5.928 6.168Zm0-2.52c2.185 0 3.049-1.728 3.049-3.648 0-1.944-.864-3.624-3.048-3.624s-3.048 1.68-3.048 3.624c0 1.92.864 3.648 3.048 3.648ZM68.61 37v-9.552h-2.256v-2.28h2.28v-1.344c0-3 1.704-3.792 3.576-3.792.912 0 1.608.192 2.232.48l-.936 2.208a1.83 1.83 0 0 0-.984-.288c-1.032 0-1.032.936-1.032 1.368v1.368h2.76v2.28h-2.76V37h-2.88Zm19.398-9.552h-2.952v6.024c0 .936.576 1.368 1.512 1.368.408 0 .912-.096 1.44-.264v2.304c-.72.24-1.44.36-2.16.36-1.992 0-3.672-1.032-3.672-3.552v-6.24h-1.92v-2.28h1.92v-2.28l2.88-2.136v4.416h2.952v2.28Zm8.418-2.52c2.664 0 4.176 1.608 4.176 4.44V37h-2.88v-6.912c0-1.8-.696-2.64-2.184-2.64-1.896 0-2.688 1.416-2.688 4.824V37h-2.88V20.272h2.88v6.24c.792-1.032 2.016-1.584 3.576-1.584Zm17.357 6c0 .36-.024.72-.072 1.104h-8.112c.12 1.56 1.08 2.592 2.952 2.592 1.056 0 2.016-.336 2.832-1.272l1.992 1.752c-1.296 1.44-2.856 2.136-4.848 2.136-4.08 0-5.808-2.928-5.808-6.096 0-3.096 1.68-6.216 5.616-6.216 3.672 0 5.448 2.712 5.448 6Zm-8.208-1.176h5.448c-.048-1.512-1.2-2.424-2.712-2.424-1.752 0-2.568 1.248-2.736 2.424Zm20.13 7.488c-2.496 0-4.392-1.512-4.968-3.312l2.304-1.032c.312.864.936 1.944 2.52 1.944 1.344 0 1.92-.768 1.92-1.392 0-1.992-6.096-.672-6.096-5.064 0-2.28 2.064-3.456 4.344-3.456 2.04 0 3.6.96 4.488 2.568l-2.232 1.224c-.408-.744-1.056-1.512-2.352-1.512-.936 0-1.512.456-1.512 1.008 0 1.8 6.192.744 6.192 5.064 0 2.76-2.376 3.96-4.608 3.96Zm17.071-6.312c0 .36-.024.72-.072 1.104h-8.112c.12 1.56 1.08 2.592 2.952 2.592 1.056 0 2.016-.336 2.832-1.272l1.992 1.752c-1.296 1.44-2.856 2.136-4.848 2.136-4.08 0-5.808-2.928-5.808-6.096 0-3.096 1.68-6.216 5.616-6.216 3.672 0 5.448 2.712 5.448 6Zm-8.208-1.176h5.448c-.048-1.512-1.2-2.424-2.712-2.424-1.752 0-2.568 1.248-2.736 2.424Zm15.277 7.488c-3.864 0-5.736-3-5.736-6.12s1.848-6.192 5.712-6.192c2.352 0 4.2 1.128 5.112 3.48l-2.736 1.08c-.312-1.248-1.2-2.04-2.376-2.04-1.992 0-2.76 1.8-2.76 3.672s.744 3.6 2.76 3.6c1.152 0 2.064-.768 2.376-1.992l2.616 1.008c-.792 2.208-2.616 3.504-4.968 3.504Zm13.467-9.792h-2.952v6.024c0 .936.576 1.368 1.512 1.368.408 0 .912-.096 1.44-.264v2.304c-.72.24-1.44.36-2.16.36-1.992 0-3.672-1.032-3.672-3.552v-6.24h-1.92v-2.28h1.92v-2.28l2.88-2.136v4.416h2.952v2.28Zm2.452-4.512v-2.664h3.024v2.664h-3.024ZM165.836 37V25.168h2.88V37h-2.88Zm11.107.24c-3.672 0-5.928-2.832-5.928-6.168 0-3.36 2.256-6.144 5.928-6.144 3.648 0 5.928 2.784 5.928 6.144 0 3.336-2.28 6.168-5.928 6.168Zm0-2.52c2.184 0 3.048-1.728 3.048-3.648 0-1.944-.864-3.624-3.048-3.624s-3.048 1.68-3.048 3.624c0 1.92.864 3.648 3.048 3.648Zm14.685-9.792c2.664 0 4.176 1.632 4.176 4.44V37h-2.88v-6.912c0-.816 0-2.64-2.184-2.64-2.688 0-2.688 2.712-2.688 4.824V37h-2.88V25.168h2.88v1.368c.84-1.128 2.136-1.608 3.576-1.608Z"/>
  <mask id="a" width="20" height="19" x="1" y="51" maskUnits="userSpaceOnUse" style="mask-type:alpha">
    <path fill="#D9D9D9" d="M20.167 51.75H1.834v17.417h18.333z"/>
  </mask>
  <g fill-rule="evenodd" clip-rule="evenodd" mask="url(#a)">
    <path fill="#EC008C" d="M11.447 69.049c.308-.171 7.56-4.269 8.525-9.258.61-3.127-.304-5.046-1.178-6.105a5.328 5.328 0 0 0-4.125-1.934 5.27 5.27 0 0 0-3.666 1.334 5.27 5.27 0 0 0-3.667-1.334 5.327 5.327 0 0 0-4.125 1.934c-.874 1.06-1.787 2.978-1.182 6.105.968 4.993 8.22 9.09 8.525 9.258a.917.917 0 0 0 .893 0Z"/>
    <path fill="url(#b)" d="M11.447 69.049c.308-.171 7.56-4.269 8.525-9.258.61-3.127-.304-5.046-1.178-6.105a5.328 5.328 0 0 0-4.125-1.934 5.27 5.27 0 0 0-3.666 1.334 5.27 5.27 0 0 0-3.667-1.334 5.327 5.327 0 0 0-4.125 1.934c-.874 1.06-1.787 2.978-1.182 6.105.968 4.993 8.22 9.09 8.525 9.258a.917.917 0 0 0 .893 0Z"/>
  </g>
  <mask id="c" width="19" height="19" x="29" y="51" maskUnits="userSpaceOnUse" style="mask-type:alpha">
    <path fill="#D9D9D9" d="M47.667 51.75H29.334v17.417h18.333z"/>
  </mask>
  <g fill-rule="evenodd" clip-rule="evenodd" mask="url(#c)">
    <path fill="#EC008C" d="M38.947 69.049c.308-.171 7.56-4.269 8.525-9.258.61-3.127-.304-5.046-1.178-6.105a5.328 5.328 0 0 0-4.125-1.934 5.27 5.27 0 0 0-3.666 1.334 5.27 5.27 0 0 0-3.667-1.334 5.327 5.327 0 0 0-4.125 1.934c-.874 1.06-1.787 2.978-1.182 6.105.968 4.993 8.22 9.09 8.525 9.258a.917.917 0 0 0 .893 0Z"/>
    <path fill="url(#d)" d="M38.947 69.049c.308-.171 7.56-4.269 8.525-9.258.61-3.127-.304-5.046-1.178-6.105a5.328 5.328 0 0 0-4.125-1.934 5.27 5.27 0 0 0-3.666 1.334 5.27 5.27 0 0 0-3.667-1.334 5.327 5.327 0 0 0-4.125 1.934c-.874 1.06-1.787 2.978-1.182 6.105.968 4.993 8.22 9.09 8.525 9.258a.917.917 0 0 0 .893 0Z"/>
  </g>
  <mask id="e" width="20" height="19" x="56" y="51" maskUnits="userSpaceOnUse" style="mask-type:alpha">
    <path fill="#D9D9D9" d="M75.167 51.75H56.834v17.417h18.333z"/>
  </mask>
  <g fill-rule="evenodd" clip-rule="evenodd" mask="url(#e)">
    <path fill="#EC008C" d="M66.447 69.049c.308-.171 7.56-4.269 8.525-9.258.61-3.127-.304-5.046-1.178-6.105a5.328 5.328 0 0 0-4.125-1.934 5.27 5.27 0 0 0-3.666 1.334 5.27 5.27 0 0 0-3.667-1.334 5.327 5.327 0 0 0-4.125 1.934c-.874 1.06-1.788 2.978-1.182 6.105.967 4.993 8.22 9.09 8.525 9.258a.917.917 0 0 0 .893 0Z"/>
    <path fill="url(#f)" d="M66.447 69.049c.308-.171 7.56-4.269 8.525-9.258.61-3.127-.304-5.046-1.178-6.105a5.328 5.328 0 0 0-4.125-1.934 5.27 5.27 0 0 0-3.666 1.334 5.27 5.27 0 0 0-3.667-1.334 5.327 5.327 0 0 0-4.125 1.934c-.874 1.06-1.788 2.978-1.182 6.105.967 4.993 8.22 9.09 8.525 9.258a.917.917 0 0 0 .893 0Z"/>
  </g>
  <mask id="g" width="19" height="19" x="84" y="51" maskUnits="userSpaceOnUse" style="mask-type:alpha">
    <path fill="#D9D9D9" d="M102.667 51.75H84.334v17.417h18.333z"/>
  </mask>
  <g fill-rule="evenodd" clip-rule="evenodd" mask="url(#g)">
    <path fill="#EC008C" d="M93.947 69.049c.308-.171 7.56-4.269 8.525-9.258.61-3.127-.304-5.046-1.178-6.105a5.32 5.32 0 0 0-4.125-1.934 5.27 5.27 0 0 0-3.666 1.334 5.27 5.27 0 0 0-3.667-1.334 5.327 5.327 0 0 0-4.125 1.934c-.874 1.06-1.787 2.978-1.182 6.105.968 4.993 8.22 9.09 8.525 9.258a.917.917 0 0 0 .893 0Z"/>
    <path fill="url(#h)" d="M93.947 69.049c.308-.171 7.56-4.269 8.525-9.258.61-3.127-.304-5.046-1.178-6.105a5.32 5.32 0 0 0-4.125-1.934 5.27 5.27 0 0 0-3.666 1.334 5.27 5.27 0 0 0-3.667-1.334 5.327 5.327 0 0 0-4.125 1.934c-.874 1.06-1.787 2.978-1.182 6.105.968 4.993 8.22 9.09 8.525 9.258a.917.917 0 0 0 .893 0Z"/>
  </g>
  <mask id="i" width="10" height="19" x="111" y="51" maskUnits="userSpaceOnUse" style="mask-type:alpha">
    <path fill="#D9D9D9" d="M121 51.75h-9.167v17.417H121z"/>
  </mask>
  <g fill-rule="evenodd" clip-rule="evenodd" mask="url(#i)">
    <path fill="#EC008C" d="M121.447 69.049c.308-.171 7.56-4.269 8.525-9.258.61-3.127-.304-5.046-1.178-6.105a5.32 5.32 0 0 0-4.125-1.934 5.27 5.27 0 0 0-3.666 1.334 5.272 5.272 0 0 0-3.667-1.334 5.33 5.33 0 0 0-4.125 1.934c-.874 1.06-1.787 2.978-1.182 6.105.968 4.993 8.219 9.09 8.525 9.258a.921.921 0 0 0 .893 0Z"/>
    <path fill="url(#j)" d="M121.447 69.049c.308-.171 7.56-4.269 8.525-9.258.61-3.127-.304-5.046-1.178-6.105a5.32 5.32 0 0 0-4.125-1.934 5.27 5.27 0 0 0-3.666 1.334 5.272 5.272 0 0 0-3.667-1.334 5.33 5.33 0 0 0-4.125 1.934c-.874 1.06-1.787 2.978-1.182 6.105.968 4.993 8.219 9.09 8.525 9.258a.921.921 0 0 0 .893 0Z"/>
  </g>
  <path fill="#fff" fill-rule="evenodd" d="M121.447 69.049c.308-.171 7.56-4.269 8.525-9.258.61-3.127-.304-5.046-1.178-6.105a5.32 5.32 0 0 0-4.125-1.934 5.27 5.27 0 0 0-3.666 1.334 5.272 5.272 0 0 0-3.667-1.334 5.33 5.33 0 0 0-4.125 1.934c-.874 1.06-1.787 2.978-1.182 6.105.968 4.993 8.219 9.09 8.525 9.258a.921.921 0 0 0 .893 0Zm-7.529-14.78a4.407 4.407 0 0 1 3.415-1.6h.031a4.356 4.356 0 0 1 3.029 1.102l.61.543.61-.544a4.352 4.352 0 0 1 3.029-1.101h.031a4.41 4.41 0 0 1 3.414 1.6c.705.855 1.541 2.498.986 5.346l-.001.002c-.419 2.166-2.255 4.262-4.201 5.91a26.89 26.89 0 0 1-3.87 2.721l-.006-.003a26.671 26.671 0 0 1-3.863-2.715c-1.946-1.648-3.783-3.745-4.203-5.914-.552-2.849.284-4.491.989-5.347Z" clip-rule="evenodd"/>
  <path fill="#464650" d="M143.701 61.216h1.356v.792h-1.356V64h-.828v-1.992h-4.188v-.54l4.248-5.832h.768v5.58Zm-3.912 0h3.084v-4.332l-3.084 4.332ZM146.777 64v-1.32h1.08V64h-1.08Zm6.034.12c-2.232 0-2.676-2.304-2.676-4.296 0-1.992.42-4.308 2.592-4.308 1.98 0 2.664 2.028 2.664 4.32 0 2.292-.672 4.284-2.58 4.284Zm-.024-.792c1.356 0 1.716-1.608 1.716-3.504 0-1.932-.372-3.516-1.776-3.516-1.464 0-1.74 1.716-1.74 3.516 0 1.764.276 3.504 1.8 3.504Zm8.926 1.068c-.888-.996-1.404-3.048-1.404-4.572 0-1.824.492-3.504 1.392-4.572h.768c-1.08 1.332-1.5 3.012-1.5 4.596 0 1.74.516 3.336 1.488 4.548h-.744Zm2.833-.396.528-2.532h-1.464v-.6h1.596l.468-2.244h-1.56V58h1.68l.528-2.364h.66l-.504 2.388h2.052l.504-2.388h.66l-.516 2.388h1.488v.6h-1.62l-.468 2.244h1.596v.6h-1.716l-.54 2.532h-.66l.528-2.532h-2.064L165.206 64h-.66Zm1.32-3.132h2.064l.456-2.244h-2.052l-.468 2.244Zm9.061-5.232h.828V64h-.828v-6.204h-2.088v-.816h1.392c.42 0 .696-.144.696-.636v-.708Zm6.759 8.484c-2.232 0-2.676-2.304-2.676-4.296 0-1.992.42-4.308 2.592-4.308 1.98 0 2.664 2.028 2.664 4.32 0 2.292-.672 4.284-2.58 4.284Zm-.024-.792c1.356 0 1.716-1.608 1.716-3.504 0-1.932-.372-3.516-1.776-3.516-1.464 0-1.74 1.716-1.74 3.516 0 1.764.276 3.504 1.8 3.504Zm6.786.792c-2.232 0-2.676-2.304-2.676-4.296 0-1.992.42-4.308 2.592-4.308 1.98 0 2.664 2.028 2.664 4.32 0 2.292-.672 4.284-2.58 4.284Zm-.024-.792c1.356 0 1.716-1.608 1.716-3.504 0-1.932-.372-3.516-1.776-3.516-1.464 0-1.74 1.716-1.74 3.516 0 1.764.276 3.504 1.8 3.504Zm4.33 1.068h-.744c.972-1.212 1.488-2.808 1.488-4.548 0-1.584-.42-3.264-1.5-4.596h.768c.9 1.068 1.392 2.748 1.392 4.572 0 1.524-.516 3.576-1.404 4.572Zm4.321-5.388-.672-.48.996-1.092-1.416-.216.264-.792 1.296.576-.192-1.368h.828l-.192 1.368 1.296-.576.264.792-1.428.216.996 1.092-.684.48-.672-1.368-.684 1.368Z"/>
  <defs>
    <linearGradient id="b" x1="1.833" x2="20.015" y1="67.022" y2="61.426" gradientUnits="userSpaceOnUse">
      <stop stop-color="#E7A541"/>
      <stop offset="1" stop-color="#E7A541" stop-opacity="0"/>
    </linearGradient>
    <linearGradient id="d" x1="29.334" x2="47.515" y1="67.022" y2="61.426" gradientUnits="userSpaceOnUse">
      <stop stop-color="#E7A541"/>
      <stop offset="1" stop-color="#E7A541" stop-opacity="0"/>
    </linearGradient>
    <linearGradient id="f" x1="56.834" x2="75.015" y1="67.022" y2="61.426" gradientUnits="userSpaceOnUse">
      <stop stop-color="#E7A541"/>
      <stop offset="1" stop-color="#E7A541" stop-opacity="0"/>
    </linearGradient>
    <linearGradient id="h" x1="84.334" x2="102.515" y1="67.022" y2="61.426" gradientUnits="userSpaceOnUse">
      <stop stop-color="#E7A541"/>
      <stop offset="1" stop-color="#E7A541" stop-opacity="0"/>
    </linearGradient>
    <linearGradient id="j" x1="111.833" x2="130.015" y1="67.022" y2="61.426" gradientUnits="userSpaceOnUse">
      <stop stop-color="#E7A541"/>
      <stop offset="1" stop-color="#E7A541" stop-opacity="0"/>
    </linearGradient>
  </defs>
</svg>
